<svg xmlns="http://www.w3.org/2000/svg" viewBox="0 0 92.94 46.013">
  <defs>
    <style>
      .cls-1, .cls-2 {
        fill: #fff;
      }

      .cls-1 {
        opacity: 0.6;
      }
    </style>
  </defs>
  <g id="mapc-logo" transform="translate(0 0)">
    <path id="Tracé_1" data-name="Tracé 1" class="cls-1" d="M5.041,5.68H56.375l1.846-1.349L59,4.9l.213-1.914,1.705-.642,1.349.142.781-1.349L66.67,0l.994.639h.781l.213.994-.923.355.142.781.642-.355,1.56,3.692-9.23,10.864,8.8,5.825,2.985,4.686,1.207,1.42,2.7.568.568,4.047,3.479,1.917,2.769-.142-.994.923L84.281,36l1.207-.923,5.112-1.56.213-2.769-.926-1.922-.994,1.56-.213-3.692-2.911-1.56-.142,1.349-1.207-1.56.923-.639,3.266.923,2.556,3.124,1.42,3.763.354,4.329-.781-2.13-.779,1.42,1.136,1.136s-.068.639-.213,1.42c-.142,1.136-.355,2.485-.355,2.485l-.994.213.639-2.911-.568-.568L82.077,38.7l-.568.923L80.3,39.76l.427-.994L79.522,39.9l-.568,1.7-4.047.355-1.349.781.568-1.42.213-2.911.568-1.56L73.7,35.291l-3.479,3.9-2.556.355-1.7,1.56.994,1.136L65.25,43.6l-2.911.213L61.7,40.472l-3.765-5.114-1.7-.353V31.24h-1.7l.142-3.337H0Z"/>
    <path id="Tracé_2" data-name="Tracé 2" class="cls-2" d="M66.755,14.923l-.355,2.13,1.42.852-.426,1.349,1.7,2.13-.923.711v1.775l.781.213L69.1,25.86l1.775,1.775.213,1.917,2.7.213,1.988-1.207.781.639,5.61-2.556-.5-1,.71-.568.782.781,1.207-.639h.923l1.42,1.846.781-.284.426,1.988,4.189.639.426-.994.781.568-.923.994,1.846-.781-1.349-1.988-2.13-3.763L89.26,21.95l-2.343-.994-.852-.994-1.349.426.994.426.355.781-1.349.142-.355-.781-.426.426-.71-.566.5-.568-1.136-.068.781-.994,1.207-.5-.639-1.775.568-1.065.213.852h1.136l-.5-.781.142-.568h.994l.355-.639,1.065-.568-1.2-1.208,3.9-1.278.994-1.065v.851l.781-.213.355-1.207.923-.568v-1l-.923.284V7.965h-.994L91.108,9.03l-1.914.284.568-.639-1.278-.426L88.2,7.468l-.568.213L87.274,6.9,83.8,8.533l-.068,1.7L82.45,9.811l-1.56,1.065H79.677l-.781-.284-.639.994-.923.639v1.349l-1.7-.213-.851-.923H73.571l-.71.923h-.994l-1.136-1.7-1.346,1.065.142,1.42-.71.568.355.781-1.136.068Z" transform="translate(-19.256 -2.001)"/>
    <path id="Tracé_3" data-name="Tracé 3" class="cls-2" d="M.2,57.409H3.111v-12l5.254,7.81h.068l5.254-7.881v12H16.6V40.649H13.545L8.436,48.534,3.324,40.652H.2Zm19.6,0h2.985l1.7-4.047h7.878l1.7,4.047h3.124l-7.313-16.9h-2.7Zm5.822-6.674,2.84-6.674,2.911,6.674Zm14.768,6.674h2.985v-5.4h3.337c3.692,0,6.674-1.988,6.674-5.68v-.068c0-3.337-2.485-5.609-6.39-5.609H40.387V57.412Zm2.985-8.094V43.282h3.408c2.2,0,3.621.994,3.621,2.985v.068c0,1.775-1.42,2.985-3.621,2.985Zm21.087,8.378a8.667,8.667,0,0,0,6.816-2.985l-1.917-1.917a6.566,6.566,0,0,1-4.828,2.2,5.692,5.692,0,0,1-5.538-5.964V48.96a5.631,5.631,0,0,1,5.538-5.893,6.8,6.8,0,0,1,4.686,2.059l1.917-2.2A8.673,8.673,0,0,0,64.6,40.3a8.518,8.518,0,0,0-8.662,8.662v.068a8.444,8.444,0,0,0,8.52,8.665Z" transform="translate(-0.058 -11.684)"/>
  </g>
</svg>
