<svg id="Groupe_58" data-name="Groupe 58" xmlns="http://www.w3.org/2000/svg" xmlns:xlink="http://www.w3.org/1999/xlink" viewBox="0 0 130.687 62.373">
  <defs>
    <style>
      .cls-1 {
        fill: none;
      }

      .cls-2 {
        fill: #1f4e46;
      }

      .cls-3 {
        fill: url(#linear-gradient);
      }

      .cls-4 {
        fill: #afe2bd;
      }
    </style>
    <linearGradient id="linear-gradient" y1="0.5" x2="1" y2="0.5" gradientUnits="objectBoundingBox">
      <stop offset="0" stop-color="#6fc68e"/>
      <stop offset="1" stop-color="#47b593"/>
    </linearGradient>
  </defs>
  <g id="Groupe_57" data-name="Groupe 57">
    <rect id="Rectangle_55" data-name="Rectangle 55" class="cls-1" width="17.352" height="17.352" transform="translate(27.982 10.943)"/>
    <rect id="Rectangle_56" data-name="Rectangle 56" class="cls-1" width="17.352" height="17.352" transform="translate(8.129 10.943)"/>
    <rect id="Rectangle_57" data-name="Rectangle 57" class="cls-1" width="17.352" height="17.352" transform="translate(67.844 10.943)"/>
    <circle id="Ellipse_10" data-name="Ellipse 10" class="cls-1" cx="5.002" cy="5.002" r="5.002" transform="translate(17.665 47.366)"/>
    <circle id="Ellipse_11" data-name="Ellipse 11" class="cls-1" cx="5.002" cy="5.002" r="5.002" transform="translate(98.328 47.366)"/>
    <rect id="Rectangle_58" data-name="Rectangle 58" class="cls-1" width="17.352" height="17.352" transform="translate(47.991 10.943)"/>
    <rect id="Rectangle_59" data-name="Rectangle 59" class="cls-1" width="17.352" height="17.352" transform="translate(87.698 10.943)"/>
    <path id="Tracé_517" data-name="Tracé 517" class="cls-2" d="M18.1,27.1a10,10,0,1,0,10,10A10.075,10.075,0,0,0,18.1,27.1Zm0,15.007a5,5,0,1,1,5-5A5.144,5.144,0,0,1,18.1,42.107Z" transform="translate(4.562 15.264)"/>
    <path id="Tracé_518" data-name="Tracé 518" class="cls-2" d="M3.383,27.328A7.445,7.445,0,0,0,.1,21.7V32.955A7.445,7.445,0,0,0,3.383,27.328Z" transform="translate(0.056 12.222)"/>
    <path id="Tracé_519" data-name="Tracé 519" class="cls-2" d="M69.7,27.1a10,10,0,1,0,10,10A9.974,9.974,0,0,0,69.7,27.1Zm0,15.007a5,5,0,1,1,5-5A5.037,5.037,0,0,1,69.7,42.107Z" transform="translate(33.625 15.264)"/>
    <path id="Tracé_520" data-name="Tracé 520" class="cls-3" d="M128.811,41.738c-3.908,0-6.253-2.97-6.253-7.973V18.6c0-5,2.345-7.973,6.253-7.973h1.876V9.067a6.339,6.339,0,0,0-6.409-6.409H76.911V0H39.863V2.658H6.409A6.339,6.339,0,0,0,0,9.067V30.8c3.6,2.189,5.784,5.315,5.784,8.754,0,3.283-2.032,6.253-5.471,8.441a6.391,6.391,0,0,0,5.94,4.377H10a12.35,12.35,0,0,1,24.7,0H90.668a12.35,12.35,0,0,1,24.7,0h8.441a6.339,6.339,0,0,0,6.409-6.409V41.738ZM25.481,28.295H8.129V10.943H25.481Zm19.853,0H27.982V10.943H45.334Zm20.009,0H47.991V10.943H65.343V28.295Zm19.853,0H67.844V10.943H85.2Zm19.853,0H87.7V10.943h17.352Z"/>
    <path id="Tracé_521" data-name="Tracé 521" class="cls-2" d="M79.5,14.153V29.316c0,2.814.782,6.253,4.533,6.253h1.876V7.9H84.033C80.282,7.9,79.5,11.183,79.5,14.153Z" transform="translate(44.777 4.45)"/>
  </g>
  <rect id="Rectangle_60" data-name="Rectangle 60" class="cls-4" width="17.352" height="17.352" transform="translate(8.129 10.943)"/>
  <rect id="Rectangle_61" data-name="Rectangle 61" class="cls-4" width="17.352" height="17.352" transform="translate(27.982 10.943)"/>
  <rect id="Rectangle_62" data-name="Rectangle 62" class="cls-4" width="17.352" height="17.352" transform="translate(47.991 10.943)"/>
  <rect id="Rectangle_63" data-name="Rectangle 63" class="cls-4" width="17.352" height="17.352" transform="translate(67.844 10.943)"/>
  <rect id="Rectangle_64" data-name="Rectangle 64" class="cls-4" width="17.352" height="17.352" transform="translate(87.698 10.943)"/>
</svg>
