<svg id="Groupe_46" data-name="Groupe 46" xmlns="http://www.w3.org/2000/svg" xmlns:xlink="http://www.w3.org/1999/xlink" viewBox="0 0 104.446 90.248">
  <defs>
    <style>
      .cls-1 {
        fill: #afe2bd;
      }

      .cls-2 {
        fill: url(#linear-gradient);
      }
    </style>
    <linearGradient id="linear-gradient" x1="0.001" y1="0.501" x2="0.999" y2="0.501" gradientUnits="objectBoundingBox">
      <stop offset="0" stop-color="#1f4e46"/>
      <stop offset="1" stop-color="#47b593"/>
    </linearGradient>
  </defs>
  <path id="Tracé_492" data-name="Tracé 492" class="cls-1" d="M104.446,70.011c0,1.632-.49,3.754-4.406,3.754H52.223a1.223,1.223,0,0,0-.816.163L14.688,90.248V75.886a2.16,2.16,0,0,0-2.122-2.122H3.917C1.469,73.765,0,72.133,0,69.359V4.9C0,1.306,1.142,0,4.406,0h96.612c.816,0,3.427,0,3.427,4.9V70.011Z" transform="translate(0)"/>
  <path id="Tracé_493" data-name="Tracé 493" class="cls-2" d="M70.3,38.134l-16.972.326h0a2.7,2.7,0,0,0-2.774,2.285c-.326,1.469.163,2.938.653,3.1,1.306.49,8.649.816,14.2,1.142,1.469,0,2.774.163,3.917.163.816,0,1.8-1.306,2.285-2.938C71.772,41.561,72.1,39.277,70.3,38.134Zm-4.9,7.833c-6.854-.326-12.4-.653-14.2-1.142a3.2,3.2,0,0,0-.816,2.448,2.888,2.888,0,0,0,1.469,2.285c1.142.653,6.2,1.306,10.118,1.8,1.958.326,3.917.49,5.222.816a2.736,2.736,0,0,0,2.285-1.8,4.781,4.781,0,0,0-.326-4.406A28.776,28.776,0,0,1,65.407,45.968Zm-39-17.136H16.611A2.578,2.578,0,0,0,14,31.443V57.555a2.578,2.578,0,0,0,2.611,2.611H26.4a2.578,2.578,0,0,0,2.611-2.611V31.443A2.578,2.578,0,0,0,26.4,28.832ZM67.2,53.148c-1.306-.163-3.264-.49-5.222-.816-4.08-.49-8.323-1.142-9.955-1.8a2.28,2.28,0,0,0,0,2.285c1.142,2.122,6.038,2.774,7.833,2.938a.521.521,0,0,1,.49.49.433.433,0,0,1-.49.49c-.326,0-7.017-.49-8.649-3.427a3.452,3.452,0,0,1,0-3.1,4.409,4.409,0,0,1-1.632-2.774,3.709,3.709,0,0,1,.816-2.938,4.216,4.216,0,0,1-.653-3.754,3.931,3.931,0,0,1,2.285-2.938,2.694,2.694,0,0,1-.816-2.448c.49-2.611,4.243-5.059,11.587-4.733a.49.49,0,1,1,0,.979c-6.854-.326-10.281,1.8-10.608,3.917-.163.979.326,1.632,1.469,2.122l17.462-.49A5.151,5.151,0,0,0,72.588,32.1c-1.142-3.754-5.222-5.385-15.83-5.385a4.319,4.319,0,0,1-3.1-1.469c-1.8-2.122-.326-9.629-.326-11.75,0-6.365-2.611-8.486-3.917-8.976a13.11,13.11,0,0,0-4.08-.49c-.163-.163-.326,0-.326.163,0,6.691-.163,8.976-3.1,14.035-1.306,2.285-6.2,10.445-11.587,14.2V56.576c14.851,1.8,37.7,8.486,37.046-3.427,0,0,0,.163-.163,0Z" transform="translate(8.848 2.502)"/>
</svg>
