<svg id="Groupe_45" data-name="Groupe 45" xmlns="http://www.w3.org/2000/svg" xmlns:xlink="http://www.w3.org/1999/xlink" viewBox="0 0 91.507 108.399">
  <defs>
    <style>
      .cls-1 {
        fill: #afe2bd;
      }

      .cls-2 {
        fill: url(#linear-gradient);
      }

      .cls-3 {
        fill: none;
        stroke: #f5f5f5;
        stroke-miterlimit: 10;
        stroke-width: 4px;
      }
    </style>
    <linearGradient id="linear-gradient" x1="0.002" y1="0.499" x2="1" y2="0.499" gradientUnits="objectBoundingBox">
      <stop offset="0" stop-color="#1f4e46"/>
      <stop offset="1" stop-color="#47b593"/>
    </linearGradient>
  </defs>
  <g id="Groupe_44" data-name="Groupe 44" transform="translate(2.424 17.726)">
    <g id="Groupe_42" data-name="Groupe 42" transform="translate(0 41.966)">
      <path id="Tracé_487" data-name="Tracé 487" class="cls-1" d="M23.35,109.555a35.071,35.071,0,0,1-3.485-2.348l2.348-3.182c.985.758,2.045,1.439,3.106,2.121Zm-6.666-4.924a36.235,36.235,0,0,1-2.954-2.954l2.879-2.651c.833.909,1.742,1.818,2.651,2.651Zm-5.606-6.212c-.833-1.136-1.591-2.273-2.348-3.485l3.409-2.045A28.124,28.124,0,0,0,14.26,96ZM6.836,91.375a34.474,34.474,0,0,1-1.591-3.863l3.712-1.364c.455,1.212.909,2.348,1.439,3.485ZM4.033,83.5c-.3-1.364-.606-2.727-.833-4.091L7.063,78.8a32.253,32.253,0,0,0,.758,3.712Z" transform="translate(-3.2 -78.8)"/>
    </g>
    <g id="Groupe_43" data-name="Groupe 43" transform="translate(61.661)">
      <path id="Tracé_488" data-name="Tracé 488" class="cls-1" d="M102.856,54.155a32.254,32.254,0,0,0-.758-3.712l3.788-.985c.3,1.364.606,2.727.833,4.091Zm-1.818-7.348c-.454-1.212-.909-2.348-1.439-3.485l3.56-1.667a29.449,29.449,0,0,1,1.591,3.863Zm-3.257-6.818c-.682-1.061-1.364-2.121-2.121-3.106l3.182-2.348c.833,1.136,1.591,2.273,2.348,3.485Zm-4.469-5.984c-.833-.909-1.742-1.818-2.651-2.651l2.651-2.879a27.2,27.2,0,0,1,2.954,2.954ZM87.706,28.93c-.985-.758-2.045-1.439-3.106-2.121L86.645,23.4a35.071,35.071,0,0,1,3.485,2.348Z" transform="translate(-84.6 -23.4)"/>
    </g>
  </g>
  <path id="Tracé_489" data-name="Tracé 489" class="cls-1" d="M0,53.025S1.136,10.3,45.6,8.181V0L60.676,14.014,45.753,27.649l.379-8.333s-31.815-2.348-35.224,34.77H0Z"/>
  <path id="Tracé_490" data-name="Tracé 490" class="cls-1" d="M100.815,74.939s-2.727,42.648-47.268,43.1l-.3,8.181L38.7,111.678,54.077,98.649l-.682,8.333s31.739,3.56,36.512-33.482l10.984.379Z" transform="translate(-9.385 -17.823)"/>
  <circle id="Ellipse_5" data-name="Ellipse 5" class="cls-2" cx="17.801" cy="17.801" r="17.801" transform="translate(28.482 34.618)"/>
  <path id="Tracé_491" data-name="Tracé 491" class="cls-3" d="M49.4,67.054l8.105,6.06L67.2,61.6" transform="translate(-11.979 -14.938)"/>
</svg>
