<svg xmlns="http://www.w3.org/2000/svg" viewBox="0 0 21.442 17.419">
  <defs>
    <style>
      .cls-1 {
        fill: #fff;
      }
    </style>
  </defs>
  <path id="twitter" class="cls-1" d="M21.436,6.06a8.67,8.67,0,0,1-2.525.691,4.423,4.423,0,0,0,1.934-2.433,8.85,8.85,0,0,1-2.793,1.068,4.4,4.4,0,0,0-7.5,4.012A12.484,12.484,0,0,1,1.492,4.8a4.4,4.4,0,0,0,1.361,5.871A4.4,4.4,0,0,1,.86,10.123v.054a4.4,4.4,0,0,0,3.53,4.312,4.4,4.4,0,0,1-1.16.155,4.519,4.519,0,0,1-.829-.08,4.414,4.414,0,0,0,4.107,3.057,8.823,8.823,0,0,1-5.464,1.885,8.682,8.682,0,0,1-1.051-.063A12.439,12.439,0,0,0,6.74,21.419,12.431,12.431,0,0,0,19.255,8.9c0-.192,0-.381-.013-.569a8.854,8.854,0,0,0,2.194-2.274Z" transform="translate(0.006 -4)"/>
</svg>
