<svg xmlns="http://www.w3.org/2000/svg" viewBox="0 0 21.426 21.435">
  <defs>
    <style>
      .cls-1 {
        fill: #fff;
      }
    </style>
  </defs>
  <g id="instagram" transform="translate(0 0)">
    <path id="Tracé_6" data-name="Tracé 6" class="cls-1" d="M10.719,1.93c2.864,0,3.2.013,4.329.063a5.875,5.875,0,0,1,1.989.368,3.318,3.318,0,0,1,1.231.8,3.36,3.36,0,0,1,.8,1.231,5.9,5.9,0,0,1,.368,1.989c.05,1.131.063,1.47.063,4.33s-.013,3.2-.063,4.33a5.875,5.875,0,0,1-.368,1.989,3.309,3.309,0,0,1-.8,1.231,3.363,3.363,0,0,1-1.231.8,5.9,5.9,0,0,1-1.989.368c-1.131.05-1.47.063-4.33.063s-3.2-.013-4.33-.063A5.875,5.875,0,0,1,4.4,19.065a3.317,3.317,0,0,1-1.231-.8,3.363,3.363,0,0,1-.8-1.231A5.9,5.9,0,0,1,2,15.045c-.05-1.131-.063-1.47-.063-4.33s.013-3.2.063-4.33A5.875,5.875,0,0,1,2.368,4.4a3.326,3.326,0,0,1,.8-1.231,3.36,3.36,0,0,1,1.231-.8,5.9,5.9,0,0,1,1.989-.368c1.126-.05,1.466-.063,4.33-.063Zm0-1.93C7.809,0,7.445.012,6.3.063a7.824,7.824,0,0,0-2.6.5A5.223,5.223,0,0,0,1.8,1.8,5.248,5.248,0,0,0,.561,3.7a7.85,7.85,0,0,0-.5,2.6C.013,7.445,0,7.809,0,10.719s.013,3.274.063,4.418a7.825,7.825,0,0,0,.5,2.6,5.231,5.231,0,0,0,1.239,1.9,5.239,5.239,0,0,0,1.9,1.235,7.85,7.85,0,0,0,2.6.5c1.143.05,1.507.063,4.418.063s3.275-.013,4.418-.063a7.825,7.825,0,0,0,2.6-.5,5.479,5.479,0,0,0,3.132-3.132,7.85,7.85,0,0,0,.5-2.6c.05-1.143.063-1.507.063-4.418s-.013-3.274-.063-4.418a7.825,7.825,0,0,0-.5-2.6A5.029,5.029,0,0,0,19.638,1.8a5.239,5.239,0,0,0-1.9-1.235,7.85,7.85,0,0,0-2.6-.5C13.994.012,13.63,0,10.72,0h0Z" transform="translate(0 0.001)"/>
    <path id="Tracé_7" data-name="Tracé 7" class="cls-1" d="M13.287,7.781a5.506,5.506,0,1,0,5.506,5.506A5.508,5.508,0,0,0,13.287,7.781Zm0,9.078a3.571,3.571,0,1,1,3.571-3.571A3.572,3.572,0,0,1,13.287,16.859Z" transform="translate(-2.568 -2.568)"/>
    <path id="Tracé_8" data-name="Tracé 8" class="cls-1" d="M25.2,6.823A1.286,1.286,0,1,1,23.91,5.537,1.285,1.285,0,0,1,25.2,6.823Z" transform="translate(-7.467 -1.827)"/>
  </g>
</svg>
