<svg id="Groupe_52" data-name="Groupe 52" xmlns="http://www.w3.org/2000/svg" viewBox="0 0 72.416 104.698">
  <defs>
    <style>
      .cls-1 {
        fill: #afe2bd;
      }

      .cls-2 {
        fill: #1f4e46;
      }

      .cls-3 {
        fill: #47b593;
      }
    </style>
  </defs>
  <path id="Tracé_503" data-name="Tracé 503" class="cls-1" d="M65.218,56.82a35,35,0,0,0,7.2-21.267C72.416,15.923,56.166,0,36.208,0S0,15.923,0,35.554A34.855,34.855,0,0,0,6.98,56.6,67.515,67.515,0,0,1,16.686,75.8l.327,1.091v3.272H16.8a2.181,2.181,0,0,0,0,4.362h.218v1.636H16.8a2.181,2.181,0,0,0,0,4.362h.218v3.926a2.188,2.188,0,0,0,2.181,2.181h4.8l.654,3.381c.545,2.727,3.381,4.69,6.762,4.69H40.9c3.381,0,6.216-1.963,6.762-4.69l.654-3.381h4.8a2.188,2.188,0,0,0,2.181-2.181V90.52h.218a2.181,2.181,0,1,0,0-4.362h-.218V84.413h.218a2.181,2.181,0,1,0,0-4.362h-.218V76.124h-.109A70.294,70.294,0,0,1,65.218,56.82Z"/>
  <path id="Tracé_504" data-name="Tracé 504" class="cls-2" d="M59.8,25.482a1.1,1.1,0,0,0-.436-.763,1.175,1.175,0,0,0-.872-.218c-.545.109-13.087,2.727-20.067,12.324-.327.436-.545.763-.763,1.091-2.945,4.362-2.727,9.6.545,12l.109.109c-.109.109-.218.109-.218.218a9.137,9.137,0,0,0-3.163,2.945A14.739,14.739,0,0,0,27.958,45l.109-.218c1.745-2.4.763-6.107-2.29-8.507a4.617,4.617,0,0,0-.763-.545c-6.762-4.908-15.7-4.035-16.032-3.926a1.1,1.1,0,0,0-.763.436A1.175,1.175,0,0,0,8,33.116c.109.327,1.854,9.161,8.616,14.069.327.218.545.436.763.545a7.683,7.683,0,0,0,5.562,1.418A4.969,4.969,0,0,0,26.1,47.294l.436-.545c5.671,2.836,6.762,8.616,6.98,9.815-1.091,4.362-.109,10.034.436,12.869.109,0,.654,4.69,1.527,9.161a8.419,8.419,0,0,1,1.636-.218h.545c-.763-4.253-1.527-8.943-1.636-9.6-.654-2.727-1.309-7.743-.327-11.669h0a.4.4,0,0,1,.109-.327A7.118,7.118,0,0,1,39.082,52.2c.436-.218.763-.436,1.2-.654l1.636,1.2a6.608,6.608,0,0,0,4.8,1.091,10.891,10.891,0,0,0,6.653-4.253,9.434,9.434,0,0,0,.763-1.091C61.221,38.678,59.913,26.027,59.8,25.482Z" transform="translate(0.725 2.22)"/>
  <path id="Tracé_505" data-name="Tracé 505" class="cls-3" d="M8.218,31.6A1.311,1.311,0,0,0,8,32.472c.109.327,1.854,9.161,8.616,14.069.327.218.545.436.763.545A7.683,7.683,0,0,0,22.941,48.5,4.969,4.969,0,0,0,26.1,46.65l.654-.545" transform="translate(0.725 2.863)"/>
  <path id="Tracé_506" data-name="Tracé 506" class="cls-3" d="M37.5,51.629a.107.107,0,0,0,.109-.109l1.636,1.2a6.608,6.608,0,0,0,4.8,1.091A10.891,10.891,0,0,0,50.7,49.557a9.434,9.434,0,0,0,.763-1.091c6.98-9.6,5.671-22.357,5.671-22.9a1.1,1.1,0,0,0-.436-.763" transform="translate(3.398 2.247)"/>
  <path id="Tracé_507" data-name="Tracé 507" class="cls-2" d="M41.15,92.608c-.109.545-1.091,1.2-2.508,1.2H29.154c-1.418,0-2.4-.654-2.508-1.2L26.1,90.1H41.587Z" transform="translate(2.365 8.163)"/>
  <rect id="Rectangle_42" data-name="Rectangle 42" class="cls-2" width="29.664" height="1.745" transform="translate(21.485 92.156)"/>
  <rect id="Rectangle_43" data-name="Rectangle 43" class="cls-2" width="29.664" height="1.745" transform="translate(21.485 86.049)"/>
  <rect id="Rectangle_44" data-name="Rectangle 44" class="cls-2" width="29.664" height="1.745" transform="translate(22.03 80.05)"/>
</svg>
