<svg xmlns="http://www.w3.org/2000/svg" viewBox="0 0 136.53 127.261">
  <defs>
    <style>
      .cls-1 {
        fill: #47b593;
      }

      .cls-1, .cls-2, .cls-3, .cls-4 {
        stroke: #fff;
        stroke-width: 0.5px;
      }

      .cls-2 {
        fill: #1f4e46;
      }

      .cls-3 {
        fill: #6fc68e;
      }

      .cls-4 {
        fill: #a3e3ba;
      }
    </style>
  </defs>
  <g id="Groupe_54" data-name="Groupe 54" transform="translate(-347.934 -704.777)">
    <g id="MAPC_Region" data-name="MAPC Region" transform="translate(348.224 705.171)">
      <path id="Tracé_1" data-name="Tracé 1" class="cls-1" d="M1007,393.642l.206,1.209-.115,2.051-1.407,3.671-1.123,2.914-.032,1.468-.174.049-.8-.6h-.67l-.372.2-1.265.054-.734.262-.206.3-1.04-.546L999,404.66l.9-.2.027-.441-4.649-6.24-.646-.874,2.031-1.61,2.259-1.025,4.365-.675,1.042.418Z" transform="translate(-985.285 -323.444)"/>
      <path id="Tracé_2" data-name="Tracé 2" class="cls-2" d="M1015.667,497.225l-.068,4.368-1.483,1.177-1.41,1.343-.489-.279-.568-.979-1.182-.051-2.369-2.4-.144-.054-3-2.6.3-.367V496.9l-.311-.4-.125-.768.206-.47.382.127-.433-.839.179-.4-.015-.734.565.027.2.213.428-.024.069-.409-.467-.47,2.048-1.236,4.1.159.536-.426.644,4.263.534.078,1.9.066Z" transform="translate(-992.981 -397.199)"/>
      <path id="Tracé_6" data-name="Tracé 6" class="cls-3" d="M1348.777,267.076l-2.447-1.016.6-.22.453-.489-.029-.712.587-.563.042-.284.673-.563.678-.137-.068-.519.384-.281-.012-.257,1.1-1.747.025-.379.529.027.313-.186,1.016.328.328.321.455-.267.179.245-.67.44.345.526-.152.328.245.3-.453.707-.658.715.1.384-.489.489-.083.414.2.184,1.016-.12.2-.9.629-.379.414-.5.259-.565.345.5-.338.35-.1,1.074-.157.734-.223-.029-.49.489-.453-.524-.33-.147-.575.027-.6.213-.807.536-.037.218-.575.548-.3-.1-.34.428Z" transform="translate(-1250.923 -222.347)"/>
      <path id="Tracé_13" data-name="Tracé 13" class="cls-3" d="M1088.543,271.852l-.1.734-.037,1.211-.13.761.3.352-.108.311-.34.105.078.33.793,1.06.541-.379.365.34.289-.049.693.313,1.128,1.157.049.277-1.63.438-.115.13-.205,1.468-.568-.064-.546-.325-2.721,2.936-2.158,1.862-.245.837-.294.387-.524-.22-.421.105.054.763-.306.568-8.009-4.192,5.728-11.589,3.915.277Z" transform="translate(-1045.52 -231.207)"/>
      <path id="Tracé_19" data-name="Tracé 19" class="cls-3" d="M1248.714,481l.279,2.078,2.222.526,1.316.8-.13,1.013.078.374-.362,1.419.057.264-.7,2.183-.947,3.558-.631-.267-2.065-2.858-1.272-1.762-4.561-6.3.822-.245h.979l.23-.335.521-.02.284-.11.817.13,1.713-.369.922.108Z" transform="translate(-1172.123 -389.457)"/>
      <path id="Tracé_22" data-name="Tracé 22" class="cls-3" d="M1055.8,311.707l-1.561,5.151-3.362.734-1.1-5.939,1.769-2.263Z" transform="translate(-1026.94 -259.84)"/>
      <path id="Tracé_31" data-name="Tracé 31" class="cls-3" d="M1397.176,157.421l-.054.12-.024.059-2.273,3.959,1.485,3.529-3.472.245-3.426.511V164.7l-1.074-.913-.834-1.958-.313-.507v-.546l.847-.078-.071-1.774-.091-.842-.49-.13.306-.915-.208-.1.734-.433.3-.44.051-.421.489-.083V155.3l1.148.115-.223-.245.421-.257.225-.316-.245-.191.372-.044.149-.184-.044-.127-.245.039-.025-.137.2-.218.176.029.208-.281-.34.223-.032-.35.6-.034.122-.345.7-.477,1.1.355v.489l.22.174-.042.658-.218-.017-.925.7.115.555.23-.245-.046-.453.394.083.294-.36,1.013,1.321-.276.641-.216.056-.044-.443-.33-.206-.071.622-.162.039-.022.274-.164.1-.2-.117-.181.051-.1.127-.054.565.348-.083v-.22h-.147l-.145-.269.123-.12.377.083.181-.142.017-.213.333-.059.543.313.051.426-.33.218-.064.11.017.245.245.176-.135.078-.379.323-.149.051-.191.228-.083.644-.333.321-.666-.213.521.35.59-.4.184-.793.881-.428-.225.619.186.511.21.044.044-.458-.369-.12.333-.436-.024-1.013.475.13-.191.489.313-.286.017-.453-.164-.218.3-.144v-.208l.734-.061.188-.245.472.2-.176.4.5.154Zm-1.355-4.224.017.022.093.113-.245.683-.245.022-.5.443-.409-.046-.688-.582-.063-.644.178-.135-.264-.631.649-.152.5.46Zm.6,1.316.33.259-.262.3.245.281-.348.673-.458.059-.453-.888.7-.387Zm-2.423.078.93.191-.23.433-.3-.066-.568-.558Zm3.56,1.989-.225.507-.577-.465.423-.284Zm-3.352.734.135.455-.228.2-.039-.115-.13-.068-.088-.2.068-.139Zm1.659-2.98-.526.626-.127-.267Zm-.834,2.3-.122.208-.029.125.139.1v.218l-.441-.086Zm2.54-1.331.232.281h0l.12.142-.071.159-.521-.619Zm-2.5-.514.164.232-.414.081Z" transform="translate(-1281.785 -141.183)"/>
      <path id="Tracé_38" data-name="Tracé 38" class="cls-1" d="M1138.485,397.8l-.277-.188-.409.039-7.774,7.417-.489-.23-.13-.316.267-.835-.294-.3-.651.83-.551.409.127.854-1.9-4.593-.759-2.692.3-.125,7.211-2.447.859.35.4-.122.245.389.763-.276.551.82.839.076.321-.142.834.144.406.382Zm-9.078,7.86.245-.443.276-.051Z" transform="translate(-1084.244 -324.97)"/>
      <path id="Tracé_40" data-name="Tracé 40" class="cls-4" d="M1233.108,229.981l-.521,4.272-.734.957h-.3l-1.632,2.339-.108.281.392.543-.671.113-.137.719-2.381.335-.558-1.395-1.4-3.715.521-.311-.646-3.533.663-.056.2-.333.335.064.362-.683.411-.4.6-.245.345.186.364-.093.191-.4.568-.467.071.267,1.351.979.362.176Z" transform="translate(-1159.23 -198.487)"/>
      <path id="Tracé_42" data-name="Tracé 42" class="cls-3" d="M1280.838,226.674l2.86,1.268,4.76,1.551.308.056.463-.081.386.206,1.207.387,1.189.36.039,1.556.086.768-.372-.127-.343.651.152.122-.335.631-3.766,4.449-.91-.308-3.724-2.613-2.3-1.926-3.291-4.845-.409-2.447.629.059.061-.83.607.108.149-.179.291.291.707.13.864.663.631-.164Z" transform="translate(-1198.438 -196.471)"/>
      <path id="Tracé_45" data-name="Tracé 45" class="cls-3" d="M1332.74,282.292l2.447,1.016-.362.5-.695,1.434.183.389-.979.631-.157.2-.952-.57-.533.193v-.6l-.3-.164-.431.073-.568-.139-.46.291-1.6-4.312,3.426,1.118.643-.184Z" transform="translate(-1237.336 -238.579)"/>
      <path id="Tracé_46" data-name="Tracé 46" class="cls-1" d="M1091.647,344.184l.421.661.411-.245-.083-.511-.734.071v-.45l.335-.343-.169-.264.262-.269-.14-.382.543-.23-.083-.563.335-.592.321-.174.176-.56.232-.159.345.245.086-.372h.819l.2-.511.277.024v-.646l-.959-.321.279-.4-.357-.147.245-.489-.68-.286-.1-.445.859-.436.145-.345,4.226,2.3-.245.57-.164.374.866,10.711-.629-.127-.6,1.578-.942,1.444-1.153-.411h-.592l-.524.213-.555.531-.218.382-.4.122-.536-.827-.5-2.376-1.045-1.532-.345.3-.276-.076.032-.384-.245-.475-.179-.338.812-.377.489.091-.029-.678-.357-1.138-.12-1.135Z" transform="translate(-1057.771 -279.969)"/>
      <path id="Tracé_51" data-name="Tracé 51" class="cls-1" d="M1417.373,516.929l.365-.188,1.179,1.737.847,1.38.6.783.908.954.443.3.529.7.267.147.372.734.1.746-.49.675-.335-.1-.081-.979-.245-.316-.343-.046.394,1.111.306.448-.353.382-.083.607-1.023.6h0l-.039.024-.047.027-.952.578h0l-.355.213-.213.13-.281.169-.027.017-.817.489-.051.032-.472.284-1.661-1.581-.323-.651-6.472-4.532-1.59-1.084.355-1.082-.81-.042-.083-.717-1.187.206.11-.428-.245-.22-.03-.688-.245-.171.164-.653-.191-.228.1-.22-.1-.345-.284.024.245-.453-.194-.382.123-.35-.331-.45.034-.323-.12-.245-.22-.093-.289-.286.169-.291.083-.47.245-.064.139-.135.1-1.042.864.3.3-.039.35.215.162-.027.174-.323.123-.448.159-.034.22.328.34-.4h.582l.21-.734.527-.245.308.489.768.245.421-.206.6.4.357-.157.245-.68,1.084.4-.313.154-.117.108v.272l-.159.105.353.137-.144-.543.245.093.475-.2.489.573.088.788-.443.245-.4-.411.044.536.832-.218v.206l.218.227.076.032h.144l.127-.051.13.328.042-.372.286.338v.345l-.34-.125-.325.174.343.294.377-.159.032.4.357.059.563.4.5,1.082.279.1.511,1.524.244-.108.245.323.032.46.46.394-.345.443.244.365-.227.117.076.276-.374.582.042.308-.3.208-.292-.13-.191.362.68-.274.147-.2-.063-.218.4-.624-.105-.245.23-.12v-.245l-.206-.1.362-.453-.4-.387v-.585Zm-.37-.489.286.534-.294-.11Zm-3.264-4.177.4.245.1.193-.117.069h-.1l-.049-.073-.186-.169Z" transform="translate(-1294.655 -411.489)"/>
      <path id="Tracé_56" data-name="Tracé 56" class="cls-4" d="M1180.308,248.514l.2,2.99-.059,1.307-.227.137.225.458-1.576.595-.181.245-.668.418-2.009,2.378-.734-.842-.245.771-3.6-4.091,1.133-2.809,1.257-3.242.49.206,1.63-3.514.653.861.849.854Z" transform="translate(-1118.822 -210.089)"/>
      <path id="Tracé_72" data-name="Tracé 72" class="cls-3" d="M1330.237,187.974l5.452,2.2,7.6,2.8.563,1.581-.4.7-.715.149-.159.245-.927-.91-.967-1.3-8.246-.029-2.621-.088-.644-.122-.8-1.263.548-1.617-.208-.59.455-.793.215-1.016.533-.142Z" transform="translate(-1237.358 -167.996)"/>
      <path id="Tracé_74" data-name="Tracé 74" class="cls-3" d="M1098.889,230.444l-.068.11,1.035.7.649.345.651.778-.489,1.162,1.194,1.52.2.127-.046.553.369.127-.245,1.06-.015.431v1.126l-.245.137-1,1.057-.12.8-4.507-.1-3.915-.276-.827-.409-.788-3.357-.191-1.321,1.85-.8-.448-1.933,2.511-1.385,2.753-.959Z" transform="translate(-1057.718 -199.832)"/>
      <path id="Tracé_75" data-name="Tracé 75" class="cls-2" d="M1272.209,271.779l1.069.9,1.75,6.3-.917-.044.223-.012.145-.117-.105-.142-.171-.044-.105.1-.46-.311.042.21.3.11.389-.027.051.122-.394.117.4.306.1-.228.472-.037.245.208-.078.631.227.032.262-.624.49.411-.37.117-.2.465.58.384.693.651-.531.039-.164.46.333-.294.49-.029.1.35-.438.445.1.443-.661.793-.35.259-.583-.5h-.688l-.262.519-1.248-.2-.568-.245-.154-.264.169-.343-.281-.245.355-.245-.306-.206-.856-1.368-.886.93-3.45-5.364-.105-.169.2-1.581.927-.45.671-1.27-.49-.68.184-.438.462-.027.335-.418Z" transform="translate(-1190.9 -230.965)"/>
      <path id="Tracé_76" data-name="Tracé 76" class="cls-3" d="M1163.742,285.982l-.333.382,1.064,1.143.38.582.734.648.489.829.245.069.734.759-.551.675-.411.68-2.141,3-1.082,1.5-7.008-3.169.137-.94-.355-1.821-.455-3.3,1.4-2.841.617-.387.58-1.121,1.387-.856,3.6,4.091.245-.771Z" transform="translate(-1106.556 -239.017)"/>
      <path id="Tracé_83" data-name="Tracé 83" class="cls-2" d="M1090.186,439.077l.375.418-.223,1.326.193.59-.1.286-1.339,1.375-.262.734.558.568.015.286-.154.223-.888-.286-.443.333-.147.36-.064.781.644.565.338.524-2.246.842-2.068.389-.8.245.58-1.674-1.008-.44-.032-.636-.4-.3-.281.455-.421-.135-.025-.409-.778-.8.22-.1-.676-.475-.338-.1.176-.511-.176-.805-.284-.257-.149-1.192-.489-.541-.33-.032.228-1.439-.12-1.855,2.706-.722.937-1.784,1.7.423,2.5,1.038.083.734.558.587.856.343.4.051-.086.529Z" transform="translate(-1049.138 -354.631)"/>
      <path id="Tracé_88" data-name="Tracé 88" class="cls-2" d="M1095.247,493.866l-.629.531-.516,1-1.27,1.018-.2-.081-.387.475-.384.02v-.286l-.595.1-.548-.389-3.33-7.466-.262-1.659,2.474-.609.8-.245,2.068-.389,2.246-.842-.12.264.6.208.245.433-.135.825.489-.061.061.441.262-.073.529.379-.1.279.436.147.071.44.3.034.622.626-.078.609-.448.093-.343.284-.387-.093-.514.345-.225.685.181.122.017.653.171.076-.264.406-.171.979-.6.467Z" transform="translate(-1055.15 -392.509)"/>
      <path id="Tracé_91" data-name="Tracé 91" class="cls-3" d="M1303.255,199.065l1.752,3.181-.02,2.655-.365,1.375-.152.35-.338-.661-.066-.979-.825-.144-.516-.428-.144.105.734.6.291.054.245.443-.262.426-.509-.372-.223.294-.565-.874.3.893.245.174.228-.333.568.543.377.066-.245.306-.864.335-1.468-.428-.3.159-.308-.056-4.76-1.551-2.86-1.268.105-.387.516-.245.132-.715.289-.2.33-1.038.245-.44-.227-.942.653-.56.044-.365,1.468-.465,1.2-.871,1.258-.979,1.356-.734,1.429-.634.164.142.208.59-.548,1.617.8,1.263Zm1.4,8.67-.284-.071-1.189-.36.325-.428.592.049.671.389Z" transform="translate(-1210.802 -173.714)"/>
      <path id="Tracé_103" data-name="Tracé 103" class="cls-1" d="M1278.765,458.948l1.664.519-.093.536.081.749-.541.443-.411.184.281.029-.115.264-.078.311-.979,8.87-4.473-.027-1.25-.086-.056-.264.362-1.419-.078-.374.13-1.013-1.317-.8-2.222-.526-.279-2.078.578.032v-1.529l1.5-2.151,2.792-.137,1.079-.612,2.648-.612.377-.414Z" transform="translate(-1192.811 -372.72)"/>
      <path id="Tracé_104" data-name="Tracé 104" class="cls-1" d="M1388.517,462.833l-3.181-3.372-4.485-1.958-3.181.108,1.488-1.035,4.847-3.881-.034-.372.374.174.174-.179.617.218.245-.257.847.042,1,.33.477-.335.11.174.7-.1-.869-1.006-.289-.149-.181.357.489.291.029.4-.467.345-1.013-.338-.824-.046-.668.091-.333-.166-.017-.58-.308.015-.027-.438.2-.33.558-.389-.213-.188.134-.538-.734.083.4-.448.59-.1.1.154.489-.245.4.477h.321l-.443-.489-.245-.563.367-.022.149-.6-.154-.44.529-.154.176.607.406-.059-.205.619.022.634.6.489.034.622.465,1.236,1.165,1.554.394.051.734.458.228.465.668.626,1.363.621.154-.245.389.348.13.536-.568-.475-.3-.051-.245.333.105.333-.465.416.032.3.384.441.047.384-.311.228h.548l.4-.36-.668-.453.365-.125.489-.433.33.509-.262.2.088,1.1-.328.166-.159.81.408.8.213,1.1-.039.514.269.514-.3.213.174.36-.408.392-.384-.453.269-.362-.866-.061-.093-.3-.59.088-.526-1.113.372,1.113.7.032-.017.215-.426.069-.311.264-.274.6-.286-.377-.475.125-.313.323-.44-.132-.286-.543Zm9.159,6.47-.365.188-.245-.6-.389-.47.068-.245-.641-.511-.061-.5-.433-.592-.056-.629-.516-1.224-.658-.651h-.619l-.127-.22.788-.734.448.979,1.177,2.124.548,1.172Zm-3.475-5.026.259.44-.45-.061-.019-.509Zm1.135,1.576.12.489-.333-.392Z" transform="translate(-1274.595 -364.057)"/>
      <path id="Tracé_105" data-name="Tracé 105" class="cls-2" d="M1111.3,531.635l-.607,1.05-1.243-.4-2.616-.935-5.479.088-1.057-3.061-1.532-3.316-.245-.734.245-.357.125-.506.45.073.548.389.595-.1v.286l.384-.02.387-.475.2.081,1.27-1.018.516-1,.629-.531h4.517l.455.4-.073.362.208,1.052-.34.438.343,1.688-.164.1.389.944.156.671Z" transform="translate(-1063.753 -419.783)"/>
      <path id="Tracé_110" data-name="Tracé 110" class="cls-3" d="M1327.7,248.309l.029.712-.453.489-.6.22-.313-.117-.644.184-3.426-1.118-1.982-.67,3.766-4.449.335-.631-.152-.122.343-.651.372.127-.091-.766-.034-1.547.284.071.685.02-.455-.35.323-.514.406.489.36.039.36.622-.029.311.565.135-.274.281.105.4-.35.529.23.7.626-1.143-.12-.272.607-.519.22.377.384-.13-.215.612-.489.629.475.245.284-.489.489-.321.176-.389.372-.071.5-.489.338.142.066.617-.489-.139v.343l.489.127-.174.174.13.489-.617.127.245-.825-.228-.044-.859,1.539-.531.064-.475.232.2.962-.428.135.257.489-.174.377.365.105.335.414-.289.311-.267-.069-.245,1.047.264.162Zm11.056-10.189,1.118.644-.374.306-.876-.352Zm2.058,2.562.423.551-.47.514-.409-.159.139-.876Zm-3.749,3.915.367.609-.56-.6Z" transform="translate(-1231.271 -206.01)"/>
      <path id="Tracé_111" data-name="Tracé 111" class="cls-1" d="M991.878,363.065l-.455,3.945-2.692.377-1.028-.418-4.343.656-2.259,1.025-2.031,1.61-.878-1.167-.639-.573-.56-1.025-.421-.551.21-.262-.059-.874-.93-.389-.751-.516L974,363.564l.142-.127,1.85-1.182.881-1.693,16-2.222Z" transform="translate(-969.703 -296.812)"/>
      <path id="Tracé_116" data-name="Tracé 116" class="cls-1" d="M1365.509,502.285l-.21.2-.267-.2-.316.861-.781.184.051.668-.426.11-.734-1.067-.267.462-.413-.3L1362,502.7l-.465-.037-.179-.582.245-.489-.113-.607-.355-.387-.526-.323-.064-.489-.592-.3-.7.245-.705-.2-.3-.357.1-.308-.414-.871-.039-.6-.152-.012-.2-.651-.874-1.334v-.21l-4.661.8-.759-3.1,2.484-1.852,2.3-1.4,1.671-.751,3.181-.108,4.485,1.958,3.181,3.372-.171.149-.215.7-.489-.042-.365.438-.193-.3-.139-.034-.2.245-.059.377-.33.193-.3-.193-.294.056-.553-.284-.345-.017-.113.245-.073.905-.245.039-.088.108-.105.489-.142.154.03.13.281.264.281.184.02.507.308.416-.11.352.186.4-.245.181-.054.161.135.117h.245l-.022.6.181.171-.2.587.284.245Z" transform="translate(-1254.64 -395.326)"/>
      <path id="Tracé_120" data-name="Tracé 120" class="cls-3" d="M1016.035,298.367l4.277,2.332-1.769,2.264,1.1,5.939-.413,2.161-1.684-.565-.1-.475-.756-.069-.937.166-.384-.357-.91-.012-.893-.11-1.116.352-.149-.94-3.883-1.808,1.307-6.076.707-3.289Z" transform="translate(-995.693 -251.147)"/>
      <path id="Tracé_123" data-name="Tracé 123" class="cls-3" d="M1228.88,521.456l-2.413,1.314-7.324,3.915.02-.634-.132-.352.02-1.155.379-.832.653-1.994-.105-1.008-.455-1-.433-1.189-.869-.883-.308-.582-.213-1.224.125-.475.583.157.472-.061.377-.771.311.11.078-.308.433.117-.071.636,4.554-1.468,3.646-2.777,1.272,1.762-.92,2.3-.9,1.432L1229,520.81Z" transform="translate(-1153.77 -412.109)"/>
      <path id="Tracé_126" data-name="Tracé 126" class="cls-1" d="M1358.344,522.851l-1.042,1.265.289.631-.13.4-.675-.22-.468-.015-.156-.208-.68.071-1.441.646-.289.362-.37-.044-.489-.259-.423.225-.394-.076-.228.516-.842.563-.443-.228-.543.551-.489-.171-.137-.245-1.586.3-.245-5.173-1.353-5.8,1.987-.345,4.662-.8v.211l.874,1.333.2.651.152.012.039.6.414.871-.1.308.3.357.7.2.7-.245.592.3.064.489.526.323.355.387.112.607-.245.489.179.582.465.037Z" transform="translate(-1250.833 -414.986)"/>
      <path id="Tracé_134" data-name="Tracé 134" class="cls-2" d="M1069.754,529.078l-.245.357.245.734,1.532,3.316,1.057,3.061-.768,2.29-2.9,6.047-8.531,1.02.152-1.581v-3.277h-.117l.083-1.649.2.022.225-1.916.69-3.159.333-2.609.2-2.462.142-.551.734.11.673-.825.306.157.568-.176.489.029.049.431.49-.3-.086.436.245.321.648-.064.8-.91.671.382,1.534.37.375-.027-.1.392Z" transform="translate(-1034.765 -424.904)"/>
      <path id="Tracé_138" data-name="Tracé 138" class="cls-2" d="M1080.88,564.138l-.333.94.071,2.273-.3.793.039,2.418-11.633,4.461-9.678.154.289-2.936,8.53-1.02,2.914-6.042.768-2.29,5.479-.088,2.616.935Z" transform="translate(-1033.941 -451.241)"/>
      <path id="Tracé_141" data-name="Tracé 141" class="cls-3" d="M1319.91,120.542l-.169-.409-1.422.213-.526-1.6-1.933,1.135-3.671-1.434.11-.509,1.977-1.008,8.457-4.424.658-1.131,1.383.648-.03-.21.189-.228.069-.245.467.061.161-.164-.051-.245-.308-.034.02-.162.245-.191.068-.44-.117-.323.367-.154-.137-.184.629-.475.4.176.511-.531.23.149.245-.083.181.046.355-.093.384.071.061.414-.181.519.325.02.176-.245.573.245.36.489.093.631-.245.908.227.367-.352.081-.108.489-.389.21.125-.856-.472-.328-.4.034.658.245-.169.685.164.374.5-.115-.189.316-.533.1.13.374.333-.022.331-.355.359.039.49-.431-.147-.308.49-.024.359-.22V112l.688-.245.808.017.536.409.313.668.047.533.325.218-.056.433.3.264-.066.313-.35.144-.414-.4.34-.377-.768.264-.384-.35-1.013-.117.927.316-.646.277.154.11-.489.274.47.174-.181.636-.783.147-.937.869-.524-.23-.489.267-.4.675-.516-.157-.127.842-.489.345.228.44-.416.245-.118.135-.037.186.115.22-.174.206-.489-.012-.2.042-.078.115.132.208-.139.169-.438-.015-.563.631-.174-.191-.786.188-.22-.3-.1.029-.191.264-.181.064-.245-.037-.127.046-.35.533-.5-.179-.36-.269.1-.281-.245-.162-.245.093-.651-.218-.35.081-.489-.159Zm22.116-.776-.191.431-.321-.409-.766-.551-.45-.193-.766-.555-.8-.3-.607-.489-.876-.34-.423.465-1.552.245-.541.563-.157.4-.489.054-.1.46-.046.2.071.12h.245l-.232.225-.45-.245.2.754-.445.269.245.245-1.148-.115v.259l-.489.083-.051.421-.3.44-.734.433.208.1-.326.925-.607-.174-.286.717v.68l-1.079-.734-.176-.274.4-.347-.088-1.02-.225-.127-1.639.367-.489.509-.734.191-.171.169-.707-.781.428-1.906.519-.612h.4l.149-.066.064-.147v-.323l.653.024.269-.264-.218-.281.134-.215.181.046.282-.377-.264-.374.49-.308.154-.888.333.365.935-1.091.546.379.649-.489.284.039.352.585-.264-.754.257-.316.768.091.357-.367.09-.927.881.22-.135.367.947.311.066.783.1-.734-.533-.318-.23-.323.883-.218.414.215,1.072.086.776.4.761.629,1.106.054.675.323.245.264.619.245,1.681,1.958.245.448Zm-9-11.976,1.224-.891.541,1.4,1.275,2.878.438.68-.068.516.159.321-.78.759-1.087-.23.105-1-.6-.546.8.264.091-.536h.308l-.323-.323-.218.458-.431-.046-.159-.979.428-.416-.161-.078-.4.46v-.409l-.426.12.382.34-.063.47-.453-.423-.078-.3-.592-.475.066-.511-.132-.58Zm-4.16.754.644.4.881.291.115.345-.472.154-.533-.335-.663-.176-.245-.587Zm.428-.387.719.164.367.369.069.347-.734-.174-1.02-.529Zm1.666,3.169-.44.619-.379.017.271-.377.122-.531.284-.225Zm-.558-1.316.245.6-.223.389-.3-.291-.137-.651Zm-2.55-1.664.673.015-.078.357-.208-.1-.245.125-.49-.054Zm4.219,1.422.864,1.131-.949-.9Zm-1.921,2.738-.264.323-.015-.35Zm2.019,2.873-.272.13.149-.507Zm-3.357-5.728-.267.017.179-.4Zm12.48,11.746-.025.059-.12-.142Z" transform="translate(-1225.138 -106.9)"/>
      <path id="Tracé_142" data-name="Tracé 142" class="cls-1" d="M1378.281,447.133l-4.848,3.893-1.74-2.114-1.593-4.554,1.534-.646v-.206l-1.013-.489.042-.79.2-.369.33-1.074h.489l.245-.49.35-.112.49.108.631-.22.181-.049.1.127h.879l.71.191.068.259.436.1.245.316.524-.054.384.521.318-.039.245.362v.3l-.553.044.118-.281h-.35l-.2-.318-.093.294-.83.245.064-.812-.245-.321.074.9-.059.622.631-.245.245.582-.4-.355-.22.489.582.382.335-.2.012-.673.4.059.416-.357.083.027.108-.206.245-.191.338.139-.027.514.426.032.188.35-.345.281-.049.69-.37.11-.088.382.149.443-.245.23.536.4-.269.176.132.734.267-.073.02.514-.391.051Zm.788-2.254-.558.389-.139-.413-.259.083-.02-.489.511-.024.218.1v.188Z" transform="translate(-1268.877 -358.505)"/>
      <path id="Tracé_145" data-name="Tracé 145" class="cls-3" d="M1343.136,162.654l-.428,1.906.707.781.171-.169.734-.191.489-.509,1.64-.367.225.127.088,1.02-.4.347.176.274,1.079.734v-.68l.286-.717.607.174.489.13.09.842.071,1.774-.847.078v.546l.313.507.834,1.958,1.074.913v1.148l-1.713.335-7.6-2.809-5.452-2.2-.071-.548.714-.392.3-.294.651-.108.291-.374-.416-.445.313-.489,1.081-.21-.039-.751-.489-.651.245-.1-.433-.815-.406.132-.079-1.14.245-.139.321-.132.377.161.473-.061.619.193.489.044-.11.267.093.125.228.149.582.206.3-.245-.069-.135.269-.188.2.044.169-.029.245-.328.279.286.714-.144Z" transform="translate(-1242.895 -148.63)"/>
      <path id="Tracé_148" data-name="Tracé 148" class="cls-3" d="M959.611,288.9l10.852,5.139-1.307,6.076-3.281.82-2.391,1.6-3.267-2.053-3.778-1.517.489-2.185,1.85-8.327Z" transform="translate(-956.44 -244.025)"/>
      <path id="Tracé_149" data-name="Tracé 149" class="cls-2" d="M1043.982,530.634l-.142.551-.2,2.462-.333,2.609-.69,3.159-.225,1.916-.2-.022-.083,1.649h.117v3.276l-.152,1.581-.289,2.936-5.06.078.034-8.19.024-4.564.1-.876.274-.6-.205-.414-.345-.2-.113-.685-.3-.548.33-.379-.13-.656,1.41-1.343,1.483-1.177,2.149-.379,2.361-.36Z" transform="translate(-1016.683 -426.815)"/>
      <path id="Tracé_152" data-name="Tracé 152" class="cls-2" d="M1193.49,319.62l4.057.078.382,1.8.245.489.259.105v.443l.333.5.489.22.49-.012v1.074l-.281.81-.208.563-.428.157-.489.458-1.084-.585-.734-.3-.715-.551-1.676-.749-.626-.152-1.52-.746v.333l-1.052-.245,2.143-3Z" transform="translate(-1133.55 -267.567)"/>
      <path id="Tracé_171" data-name="Tracé 171" class="cls-3" d="M1401.722,208.761l-.489-.166-.348.157-.179.612-.692.083-.245-.489.245-.619-.675-.09.027.666-.306-.352-.418.345h-.585l-.176.294-.507-.032-.644.519-.1-.122-.519.343-.58.722.081.489-.3-.159-.489.127-.154.431-.813-.027.372-.245-.218-.734.541-.225.538-.734-.144-.272-.734.225-.039.514h-.509l.2.245-.538.489-.416-.184-.5.45-.462.066.044-.411v-.426l-.144-.34L1390.272,208l-.389-.656-.563-1.581,1.713-.335,3.426-.511,3.472-.245.656,1.644.827.323,1.294.644.8.489Zm-.663,1.089-.024.4-.335.015Z" transform="translate(-1283.394 -180.746)"/>
      <path id="Tracé_173" data-name="Tracé 173" class="cls-4" d="M1199.708,258.927l-.245.267.619.7.592,3.582-1.468.071-3.568,1.664-.489,1.167-.844-.565-3.338,1.779-.734-.648-.379-.582-1.065-1.143.333-.382,2.009-2.379.668-.418.181-.245,1.576-.595-.225-.458.228-.137.059-1.307-.2-2.99,4.326-2.484,1.4,3.715Z" transform="translate(-1131.934 -217.876)"/>
      <path id="Tracé_175" data-name="Tracé 175" class="cls-1" d="M1052.472,379.784l.245.475-.032.384.276.076.345-.3,1.045,1.532.5,2.376-1.241,2.163-1.889,1.5.377,2.18.284.286.167,1.05.69.171-.937,1.784-2.706.722-5.19-3.766-4.549-1.87,1.407-3.671.115-2.051-.206-1.209.455-3.945Z" transform="translate(-1019.447 -311.412)"/>
      <path id="Tracé_180" data-name="Tracé 180" class="cls-3" d="M1186.841,435.144v.029l.245,1.578,1.5,1.387-.734.144-.445.541-.272.766.113.245-.274.849.14.166-.443.5-2.609-2.474-2.447-.871-2.505-2.54-3.206-2.731.321-.839h.465l.338.23.382-.149.184-.844.893.213.79.039.6-.1.423-.269,1.069-1.931.338.132.308.661.786-.164.3.3.181.844-.186.489.391.345,1.6,1.754.79-.548.712.445Z" transform="translate(-1122.198 -350.25)"/>
      <path id="Tracé_186" data-name="Tracé 186" class="cls-1" d="M1332.416,508.548l-1.987.345,1.353,5.8.245,5.173-1.87.36-1.713-2.447-1.958-2.821-1.177-5.988,2-1.072,3.94-2.112.4-.333Z" transform="translate(-1235.047 -407.924)"/>
      <path id="Tracé_190" data-name="Tracé 190" class="cls-3" d="M1159.957,559.844l-13.848,7.341-.09-5.264-.039-2.418.3-.793-.071-2.273.333-.94.607-1.05,1.077-1.713,2.065-.979.257-.208,1.826-.179v.377l4.138,5.2,1.209-1.439Z" transform="translate(-1099.599 -442.608)"/>
      <path id="Tracé_195" data-name="Tracé 195" class="cls-2" d="M1191.269,356.819l.49.083.847-.113-.037.206.49.088-.078.609-.384.849-.585.683-.771.186-.661.042-.521.215-.453-.267-.658.127-.688-.039-.489-.193-.2.318-1.581-.514.511-.622-.431-.406-.861.355h-.323l-.3.281-.49-.032-.734-.394,2.875-3.343.619.918,1.224.09,1.309.445,1.187.206Z" transform="translate(-1127.84 -294.244)"/>
      <path id="Tracé_197" data-name="Tracé 197" class="cls-1" d="M1097.574,392.652l.159,1.816v1.27l-.3.125.758,2.692,1.9,4.593.688,3.864-3.687-.147-.02.233-1.258-.475.086-.529-.4-.051-.857-.343-.558-.587-.083-.734-2.5-1.038-1.7-.423-.69-.171-.167-1.05-.284-.286-.377-2.18,1.889-1.5,1.24-2.163.536.827.4-.122.218-.382.555-.531.524-.213h.592l1.153.411.942-1.444.6-1.578Z" transform="translate(-1056.026 -322.644)"/>
      <path id="Tracé_201" data-name="Tracé 201" class="cls-4" d="M1237.368,204.858l-.152-.245h-.428l-.181-.325-1.028.414-.406-.328-.523-.169-.979,2.038-.756,1.072-2.364-.4-.362-.176-1.351-.979-.071-.267-.568.467-.191.4-.365.093-.345-.186-.6.245-.411.4-.362.683-.335-.064-.2.333-.663.056-.034-.188.781-5.114-.609-2.728,7.4-.866,2.175-.852-.073.472,3.181,3.58.712,1.958Z" transform="translate(-1159.049 -175.836)"/>
      <path id="Tracé_203" data-name="Tracé 203" class="cls-3" d="M1053.817,255.8l-5.729,11.589-4.24-2.315-4.277-2.332,3.159-6.245,3.71-1.515,1.123-2.249.815-1.138.592.453,3.042-1.336.191,1.321.788,3.357Z" transform="translate(-1019.228 -215.52)"/>
      <path id="Tracé_204" data-name="Tracé 204" class="cls-3" d="M1274.624,178.9l-.773.761-.382.776.565.979.609.245.333.347.874.325.186.264-1.2.871-1.468.465-.044.365-.653.56.228.942-.245.44-.33,1.038-.289.2-.132.715-.516.245-.105.387-.064-.286-.631.164-.864-.663-.707-.13-.291-.291-.149.179-.607-.108-.061.83-.629-.059-.078-.817.893-.658-.712-1.958-3.181-3.58.073-.472.524-3.181,4.028-2.405,4.593,3.4Z" transform="translate(-1188.891 -158.623)"/>
      <path id="Tracé_206" data-name="Tracé 206" class="cls-1" d="M1340.808,435.919l-.33,1.074-.2.37-.042.79,1.013.489v.206l-1.534.646,1.593,4.554,1.74,2.114-1.488,1.035-1.671.751-2.293,1.395-2.484,1.83-.4.333-3.94,2.112,1.255-11.633-.154-.105-.38-.093-.406.11-.167-.409.257-.333-.049-1.008.387-.423-.455.108-.489-.137.015-.837-.4.105-.183-.34.13-.734-.245-.355.367-.193.274.587.365-.595.592-.279h.489l.233-.6-.245.034.245-.856.509.142.274-.228.849.2.489-.21.416.044-.418.734-.044.333.827.861-.183.037.979.947.67-.472.117-.462.289-.2-.174-.387.188-.472-.543-.536.066-.372-.159-.551.13-.382-.286-.061-.387-.448.218-.472.445-.1.294.281.039.695-.137.269.607.343.374-.46.245.347-.132.406.167.56-.127.426.511-.276.658.086.436.245.548-.338.387.162Z" transform="translate(-1238.499 -353.641)"/>
      <path id="Tracé_207" data-name="Tracé 207" class="cls-4" d="M1193.551,196.708l.609,2.728-.781,5.114.034.188.646,3.533-.521.311-4.326,2.484-2.866-3.267-.849-.854-.653-.861-.179-.23-.423-.032-.1-.284.1-.651-.2-.279.316-.245-1.14-1.116.463-.68-.122-.923.524-.509,2.322,1.512,2.173-4.764,1.289-.979.122-.658.548-1,.115-.915.524-.394.719.362.683,1.571Z" transform="translate(-1127.727 -172.641)"/>
      <path id="Tracé_218" data-name="Tracé 218" class="cls-1" d="M1312.72,442.764l.154.105-1.255,11.633-2,1.072-5.092,2.736.6-5.643.979-8.87.078-.311.14-.279.526-.2.318-.462.169-1,.4-.394.379.489.169-.191-.1-.533.267-.037-.935-.543-1.192.047.1-.92.342-.164.23.032.105.421.4-.193-.2-.245,1.524-.734.563-.426.67-.291-.078-.6.306.108,1.224-.042.086-.213-.335-.208.347-.1.081-.555.262.281v.409l.3.44-.027.264-.646.245-.475-.2-.768.357-.223.7.511.294.046.411.338.592-.112.264.6.918-.142.874.465.176-.149.489.352.245.174-.259Zm-.029-7.64-.489.475-.688-.039.039-.369.964-.431Zm.475.142.338.223-.21.2-.36-.291Z" transform="translate(-1219.352 -354.532)"/>
      <path id="Tracé_242" data-name="Tracé 242" class="cls-3" d="M1018.869,263.844l-3.159,6.245-5.611-.489-2.119-1.368,3.225-6.675.269-.225.362-.891,1.5.734.372.7.421.46.3-.2.781.548.348-.411Z" transform="translate(-995.368 -222.869)"/>
      <path id="Tracé_248" data-name="Tracé 248" class="cls-3" d="M1141.727,259.479l-1.133,2.809-1.388.856-.58,1.121-.617.387-1.4,2.841-.651-.174-.489.181-.137-.262-.842-.864-1.128-1.157-.693-.313-.289.049-.365-.34-.541.379-.793-1.06-.078-.33.34-.105.108-.311-.3-.352.13-.761.037-1.211.1-.734.12-.8,1-1.057.245-.137V257l.4.091,2.809-1.072.37-.064,1.713.455.979.02.228.245.555-.538.945,1,.316.039.389,1.414Z" transform="translate(-1087.983 -219.485)"/>
      <path id="Tracé_249" data-name="Tracé 249" class="cls-1" d="M1039.506,427.745l.12,1.855-.228,1.439-5.917,1.243-1.035.218-1.375-.311.049-2.692-4.61-1.439.081-1.933.372-.2h.67l.8.6.174-.049.032-1.468,1.123-2.9,4.549,1.87Z" transform="translate(-1009.364 -344.978)"/>
      <path id="Tracé_253" data-name="Tracé 253" class="cls-2" d="M1058.487,500l3.33,7.466-.45-.073-.125.507-.33-.042.1-.392-.367.037-1.524-.36-.671-.382-.8.91-.648.064-.245-.32.086-.436-.489.3-.049-.431-.489-.029-.568.176-.306-.157-.673.825-.734-.11-.159-.164-2.361.36-2.149.379.068-4.368.675-.015,1.1-.223,2.525-2.873,1.745-.761.81.024.022.193Z" transform="translate(-1026.252 -403.725)"/>
      <path id="Tracé_257" data-name="Tracé 257" class="cls-1" d="M1284.235,507.59l-.6,5.645-2.626,1.417.022.132-2.5,1.341-.641-.856-.078-.688.044-.9-.991-.463.947-3.558.7-2.183,1.25.086Z" transform="translate(-1198.453 -409.458)"/>
      <path id="Tracé_269" data-name="Tracé 269" class="cls-3" d="M1031.707,228.595l-.815,1.138-1.123,2.249-3.71,1.515-3.313-1.578-.348.411-.781-.548-.3.2-.421-.46-.372-.7-1.5-.734-.181-.1-.908-3.915-.438-1.258,1.165-.406,1.238-1.224.289-.771,1.184-.866.631-.477.426-.563.629-.245,1.779.536.458,2.692Z" transform="translate(-1002.559 -192.521)"/>
      <path id="Tracé_276" data-name="Tracé 276" class="cls-1" d="M1058.8,331.215l-.223.582.12,1.135.357,1.138.029.678-.489-.091-.812.377.179.338-10.85-2.119,1-4.725.362-1.613.414-2.161,3.362-.734,1.551-5.151,8,4.192-.144.345-.859.436.1.445.681.286-.245.489.357.147-.279.4.959.321v.646l-.277-.024-.2.511h-.82l-.086.372-.345-.245-.233.159-.176.56-.321.174-.348.6.066.577-.543.23.14.382-.262.269.169.264-.335.343Zm0,0V331.2l.734-.071.083.511-.411.245Z" transform="translate(-1024.923 -267.001)"/>
      <path id="Tracé_288" data-name="Tracé 288" class="cls-3" d="M1479.292,150.245l-2.978-1.395-.144-5.153.421-3.744.661-.81.609-.3.4.179.132.624.3.137.409-.154-.022.734-.335.374.157.678-.176.037.333.827-.3.675-.022,1.255.489.516.382-.372.32-.054-.323.4.284.154.543-.416.245.281.7-.081.866-.284-.281.489.323.1-.279.8.715.7-.49.962.066.4.328-.2.2.245-.147.568-.489.453-.421-.228-.788.108-.734.36-.949.947Zm5.587-2.322.076.144-.281.67-.489-.122.115-.245Zm-1.779-3.671-.174.377-.489-.286.663-.343Zm.066,5.383.017.546-.475-.232Z" transform="translate(-1348.992 -131.024)"/>
      <path id="Tracé_289" data-name="Tracé 289" class="cls-1" d="M1129.386,343.845l.406.169.426,1.006,1.052.489-1.1,2.608.362.213.423.94-.4.521.514.448.049.475.49.8.573.274.215.622-.2.286.054.389-.267.675.778.453-.653.837h-.4l-.122.489-.338.215-.3-.071.037.489-7.211,2.447v-1.27l-.159-1.816-.866-10.711.164-.374,1.635.595.472.088.313-.223.218-.489.164.078.286-.653,2.077-.443,1.27.563Z" transform="translate(-1082.054 -285.528)"/>
      <path id="Tracé_302" data-name="Tracé 302" class="cls-2" d="M992.208,437.557l.274.015,1.04.546.206-.3.734-.262,1.265-.054-.081,1.933,4.61,1.439-.049,2.692,1.375.311,1.035-.218.4.7.45,1.8-2.782,2.09-1.764,1.537-.8.624-.536.426-4.1-.159-2.048,1.236.086-.34-.171-.367.083-.556-.12-.45-1.936-.056.1-.333-1.441-.161-2.408-3.891.372-1.348,1.61-5.77,3.091-1.378.7-.078.511.113Z" transform="translate(-978.487 -356.36)"/>
      <path id="Tracé_312" data-name="Tracé 312" class="cls-1" d="M1051.469,466.546l-2.474.609.262,1.659-2.672.105-.022-.193-.81-.024-1.745.761-2.525,2.865-1.1.223-.676.015.017-1.564-1.9-.066-.534-.078-.643-4.263.8-.624,1.764-1.537,2.782-2.09-.45-1.8-.4-.7,5.914-1.243.33.032.489.541.149,1.192.284.257.176.805-.176.511.338.1.675.475-.22.1.778.8.024.409.421.135.281-.455.4.3.032.636,1.008.44Z" transform="translate(-1017.022 -372.539)"/>
      <path id="Tracé_316" data-name="Tracé 316" class="cls-2" d="M1226.018,309.093l-.3,2.692-.179.411.448,1.5.521.475.7.35.345.1-.017.538.022.169.056.79-.489.79-.318-.2-.519-.042-.313-.2-.431.132-.49-.35-.073-.357-.587-.418.477.526.032.541.281.384-.533-.245-.463.734-1.5-.69-.389-.46v-.382l-1.055-.533.073-.161-.595-.267.132-.274-.367-.176.514-.8-.7.176-.127.3-.489.012-.489-.22-.333-.5V313l-.26-.105-.245-.489-.382-1.8,2.609.051.245-.575.648-.154-.269-.734.35-.783.244-.822,1.821.785Z" transform="translate(-1153.973 -258.481)"/>
      <path id="Tracé_318" data-name="Tracé 318" class="cls-3" d="M1334.26,210.5l2.621.088,8.247.029.966,1.3.927.91.159-.245.715-.149.4-.7.389.656,1.571,1.911.145.34v.438l-.634.228-.281.325-.622.215-1.343,1.067-.979.453-.7-.1-.389.318-.355-.183-.937.311-.316.316-.347-.184.061-.245-.4-.12-.5.389-.029.4-.225-.076-.458.389-.083-.352-.362.047-.406-.387-.213.091-.778.8-.382.712-.384-.262-.954.154-.245-.367.416-.6.286-1.236-.348-.489-.529.032.693.514-.174.651-.347.558-.394.362-.455-.431-1.255-.374-.333.117-.076-.4.365-1.375.019-2.655Z" transform="translate(-1241.807 -185.149)"/>
      <path id="Tracé_319" data-name="Tracé 319" class="cls-3" d="M1423.7,160.86l-.215-1.018-.8-.489-1.294-.644-.827-.323-.656-1.644-1.485-3.529,2.273-3.959.218.137.257-.335-.262-.286v-.039l.225-.507.281.024.152.33.382-.34.245.4.205-.489.4-.13.348.543.259-.108-.316-.374v-.416l.369-.357-.088-.325.316.125-.049.392.274-.2v-.323l-.592-.22-.164.656-.245-.093-.181-.942.379-.585.2-.059.636.3.556.421,1.182.384.952.164.166.35.409.308.12-.414.345.521.49.472-.122.333-.556.073-.245.289-.49-.2-.506.122.076.734-.347-.188.015.519-.458-.012.228,1.05-.056.291-.616.088.734.076.546-.232.489,1.091-.159.465-.416-.076-.027-.245-.416.149-.842-.306.152.4-.02.717-.453.144.394.631.13-.467.536-.852,1.2.438-.161.406.538-.113.418.448.325-.355-.269.595.306.411.277-.051.636.4-.578.311.272.445-.2.306-.658.308-.022.394-.369.426.12.489.115-.421.269.489-.259.374-.284-.015.113.458-.338.47-.37-.064-.49.531-.521,1.042-.509.039-.842.414-.061.316-.519.054Zm9.272-19.087-.421,3.744.144,5.153,2.978,1.395.054.024.066.032-.289.509-.619.132-.817.734.1.489-.386.245.245,1.439-.35.925-.489.37.02.245-.891.734-.345-.132-.384.421.357.646-.614.839-1.285.347.144-.433-.245-.316.34-.338-.088-.372.428-.585.453-.144.218-.526-.423-.712.127-.707-.264.159v-.445l-.245-.046.7-.489-.245.553.306.284.066-.325.365-.4-.245-.394.448-.279.022-.489-.551.184.426-.507-.423.176-.428.4-.169.467-.712-.076.245.245-.365.308-.073-.215-.94-.132-.6-.526-.2-1.211-.262.093-.791-.338-.078-1.365-.086-.357.539-.208.012-.886.445-.524.037-.426.245-.21.225.756-.245.294.308.088-.071.869.453-1.05.034-.44-.375-.12-.047-.374.438-.465.678-.455.262-.328-.391.125-.778-.245.37-1.5-.279.458-.245.954h-.656v-1.006l.245-.262-.215-.367.614-.624.308-.042.359-.45.357.105.592-1.649.592-.262.02-.394.4.034.734-.663.489-.7.316.325v.414Zm-6.171,7.764.678.083-.4.619-.081.519-.719.4-.4-.127.02-.9.541-.188v-.257Zm.189-.69.377.548h-.839l.061-.529Zm.631-.1.245.024-.269.526-.245-.489Zm-6.9.45.054-.12v-.015l.032-.073.181.073Zm.734-1.649.071-.159.025-.059Z" transform="translate(-1305.373 -132.844)"/>
      <path id="Tracé_324" data-name="Tracé 324" class="cls-3" d="M1212.989,470.774l4.561,6.313-3.646,2.777-4.554,1.468.071-.636-.433-.117-.078.308-.311-.11-.377.771-.472.061-.583-.157-1.808-.489.171-.658-1.224-1.074-.472-.7-.245-1.456.245-.33h.3l.029-.318.455-.281.308.049-.145-.634.556.012-.176-.37.245-.166-.568-.551.345-.157-.015-.382.308-.47-.071-.472.409-.13.3-1.15.382-.308.3-.171.8-1.123.039-.335-.321-.061.311-.421.443-.5-.139-.166.274-.849-.112-.245.274-.756.445-.541.734-.144,2.08,2.728Z" transform="translate(-1143.112 -378.203)"/>
      <path id="Tracé_327" data-name="Tracé 327" class="cls-3" d="M1000.283,339.945l-.362,1.613-16,2.222-.587-.475,3.48-2.895-3.015-1.872,2.391-1.6,3.281-.815,3.883,1.808.149.94,1.116-.352.893.11.91.012.384.357.937-.166.756.069.1.475Z" transform="translate(-976.75 -280.03)"/>
      <path id="Tracé_328" data-name="Tracé 328" class="cls-3" d="M1178.963,452.606l-.311.421.321.061-.039.335-.8,1.123-.3.171-1.052-.9-1.941-1.747-1.321-.21-.891-.066-1.823.874-3.472,4.468-.3-.215v-.519l-.23-.5.1-.377-.3-.837-.343-.154-.573-.805,2.425-9.333v-.264l.071-.142,3.206,2.733,2.508,2.538,2.447.871Z" transform="translate(-1114.494 -361.504)"/>
      <path id="Tracé_331" data-name="Tracé 331" class="cls-3" d="M1145.395,483.042l.573.805.343.154.3.837-.1.377.23.5v.519l.3.215.183.245h.409l1.04,1.816.436-.044.245.465.734-.069.355.318.761,1.006.35.181,1.008,1.747-3.972,2.491-.193.357-.565.294-.186.526.02.438.279.467-.274-.02-.832.443.181.529-.122.387.073,1.566-1.825.179-.257.208-2.065.979-1.077,1.713-1.958-4.84-.156-.671-.389-.944.164-.1-.343-1.688.34-.438-.208-1.052.073-.362-.455-.4,3.612.159-.071-5.684.773-3.237.734-.475.707-.137Z" transform="translate(-1094.184 -390.817)"/>
      <path id="Tracé_333" data-name="Tracé 333" class="cls-3" d="M1179.341,510.139l.245,1.456.472.7,1.224,1.074-.171.658,1.808.489-.125.475.213,1.224.308.582.869.883.433,1.189.455,1,.105,1.008-.653,1.994-.379.832-.02,1.155.132.352-.02.634-3.785,1.994-1.224.653-2.246-4.324-1.209,1.439-4.13-5.178v-.377l-.073-1.566.122-.387-.181-.529.832-.443.274.02-.279-.467-.02-.438.186-.526.565-.294.193-.357,3.971-2.491.952-.575-.225-1.353.815-.467.066-.245.49-.056Z" transform="translate(-1118.882 -411.27)"/>
      <path id="Tracé_334" data-name="Tracé 334" class="cls-2" d="M1291.843,266.356l3.724,2.613.91.308,1.982.671,1.6,4.312-.756.71-.411.137-.4.793-.33-.115-.394.291.034-.259-.663-.423-.059.321-.44.58-1.759,1.551-.678-.186-1.052-.734-.651-.257-.147-.245.392-.171.585-.624-.489.218-.9-.68-.35.137-1.75-6.3-1.069-.9,1.223-.935.607.012.2.245.869-.629-.514-.5Z" transform="translate(-1207.448 -227.287)"/>
      <path id="Tracé_335" data-name="Tracé 335" class="cls-3" d="M1182.834,478.842l-.382.308-.3,1.15-.409.13.071.472-.308.47.015.382-.345.157.568.551-.245.166.176.37-.556-.012.144.634-.308-.049-.455.281-.029.318h-.3l-.245.33v-.259l-.489.056-.066.245-.815.467.225,1.353-.952.575-1.008-1.747-.35-.181-.761-1.006-.355-.318-.734.068-.245-.465-.436.044-1.04-1.816h-.409l-.183-.245,3.472-4.468,1.823-.874.891.066,1.322.21,1.94,1.747Z" transform="translate(-1119.486 -385.628)"/>
      <path id="Tracé_337" data-name="Tracé 337" class="cls-3" d="M1304.586,153.38l3.671,1.434,1.933-1.135.526,1.6,1.422-.213.169.409v.015l-.245.14.078,1.14.406-.132.433.815-.245.1.489.651.039.751-1.082.21-.313.489.416.445-.291.374-.651.108-.3.294-.714.392.071.548-.316-.169-.533.142-.215,1.015-.455.793-.164-.142-1.429.634-1.356.734-1.258.979-.186-.264-.874-.325-.333-.347-.609-.245-.565-.979.381-.776.773-.761-.078-.365.59-.3.365-.029.115-.3-.651-.45-.245-.854.23-.36-.379-.714.105-.245,1.891-1.189-1.081-4.143Z" transform="translate(-1217.524 -141.833)"/>
      <path id="Tracé_338" data-name="Tracé 338" class="cls-2" d="M1231.028,335.709l.164.122.541-.188.531.379.712.264.331.888-.807,1.64.634.144.372,1.2-.829-.159-.852.186-.463-.152-1.674-.066-1.072-1.28-.815-1.072.142-.269-.49-.712-.245.245-1.059-1.605-.418-.462.281-.81v-1.074l.127-.3.7-.176-.514.8.367.176-.132.274.595.267-.074.161,1.055.533v.382l.389.46,1.5.69.463-.734Z" transform="translate(-1159.835 -277.258)"/>
      <path id="Tracé_339" data-name="Tracé 339" class="cls-1" d="M1382.533,544l.024.022.245.22-.11.428,1.187-.206.083.717.81.042-.355,1.082,1.59,1.084-3.966,8.65,1.61.279.475.93.678.8-.2.595-.531.049-.086.489-.345.521-.083.587-.761-.188-2.67.453-.475.717.152.489-1,.13-.272-.651-.548-.507.093-.536-.245-.213-2.327.766-1.437-3.976.465-.379-.577-.218-.171-.343.145-1.189,1.143-.734-.538-.184.35-.6-.719-2.286.149-2.011-.37-.67.281-.343.37.044.289-.362,1.441-.646.68-.071.157.208.467.015.675.22.13-.4-.289-.631,1.042-1.265.413.3.267-.462.734,1.067.426-.11-.051-.668.781-.184.315-.861.267.2Z" transform="translate(-1271.664 -437.041)"/>
      <path id="Tracé_340" data-name="Tracé 340" class="cls-1" d="M1420.328,564.31l.4.21.49-.2.186.245-.311.531.176.47.377.125.343-.208.6.639,1.27.245-.289.489-.587.326-.49-.323-.551-.051v-.264l-.352-.333-.2.081.4.979-.325.489.115.426-.259,1.312.069.568-.453.132-.281.389.1.22-.3.245.511.215.105.245.174-.666.353.663.171,1.135-.622.67-.572.245-.4-.027-.142-.328-.443-.4-.225-.693.025-.861-.636.656-.042.245-.646-.022-.411.4-.271-.029-.088.443-.489.076-.245.338-.328-.054.056.8-1.319-.064-.362-.79.054-.347-.893-1.422-4.823-.734.083-.587.345-.521.086-.489.531-.049.2-.595-.678-.8-.475-.93-1.61-.279,3.967-8.65,6.472,4.532.323.651,1.661,1.581Zm8.871,7.857h-.489l-.162-.683-.355-.661-.636-.763-.362-.23-.061.4-.223-.653-.262-.2-.1-.49-.357-.431-1.307-1.989-.384-.807-.09-.695-.225-.069-.188.355h-.587l-.264-.575.343-.837-.553-.489.2-.734,1.023-.6.069,1.407.465,1.916.49,1.2,1.128,1.772,1.074,1.165.864,1.187Zm-7.114-8.9.952-.578-.26.524.431.834-.658.472-.017.35.272.352-.152.245-.323-.641-.35-.191v-.4l-.3-.433Zm-1.713,1.028.818-.49.35-.015.318.35.037.558.379.516-.947-.088.152-.489-.176-.4-.583.211Zm2.579.22-.022.639-.245-.462Z" transform="translate(-1297.065 -447.495)"/>
      <path id="Tracé_342" data-name="Tracé 342" class="cls-2" d="M1124.73,429.056l-.1.1-.276.051-.245.443-.186.423.734.081.051.3.367-.4.556.355.127-.142.318.592.516.411.979-.313.2.193-.022.568.4.382.343.015-.142-.778.343.1.127.3.563.406,1.118-.068.47-.624,1.1-.1.529.245v.264l-2.425,9.333-.852-.245-.707.137-.734.475.191-1.561-.372-1.042-8.477.049-.014-.286-.558-.568.262-.734,1.339-1.375.1-.286-.193-.59.223-1.326-.375-.418.02-.232,3.688.147-.688-3.864-.127-.854.551-.409.651-.83.293.3-.267.827.11.328Z" transform="translate(-1078.949 -348.958)"/>
      <path id="Tracé_343" data-name="Tracé 343" class="cls-3" d="M1124.388,477.193l-.773,3.237.071,5.684-3.612-.159h-4.517l.054-.245.6-.467.171-.979.264-.406-.171-.076-.017-.653-.181-.122.225-.685.514-.345.387.093.342-.284.448-.093.078-.609-.622-.626-.3-.034-.071-.44-.436-.147.1-.279-.529-.379-.262.073-.061-.44-.489.061.135-.825-.245-.433-.6-.208.12-.264-.338-.524-.644-.565.064-.781.147-.36.443-.333.888.286.154-.223,8.476-.049.372,1.042Z" transform="translate(-1075.46 -384.608)"/>
      <path id="Tracé_344" data-name="Tracé 344" class="cls-3" d="M1154.076,409.558l.382.438-1.069,1.931-.423.269-.6.1-.79-.039-.893-.213-.183.844-.382.149-.338-.23h-.465l-.321.832-.071.142-.528-.245-1.089.1-.457.629-1.118.069-.563-.406-.127-.3-.342-.1.142.778-.343-.015-.4-.382.022-.568-.2-.193-.979.313-.516-.411-.318-.592-.127.142-.556-.355-.367.4-.051-.3-.734-.081.186-.423.516-.489.1-.1,7.774-7.417.409-.039.276.188.066,1.189.815.36.949.081.215.575-.071.436.531.553.372,1.343.372.071.609.44.45-.328.284.374Z" transform="translate(-1095.286 -331.148)"/>
      <path id="Tracé_345" data-name="Tracé 345" class="cls-2" d="M1169.151,369.061l-.8,1.135-.118.538,1.023,1.762-.318.35.21.81.6-.091.386.174.326.428-2.755,2.763,1.786,1.8-1.747,1.586-1.588,1.994.044-.489-.284-.374-.45.328-.609-.44-.372-.071-.372-1.343-.531-.553.071-.436-.215-.575-.949-.081-.815-.36-.066-1.189-.083-.568-.406-.382-.834-.144-.321.142-.839-.076-.546-.81-.763.276-.245-.389-.4.122-.859-.35-.037-.489.3.071.338-.215.122-.489h.4l.673-.852-.778-.453.267-.675-.054-.389.2-.286-.215-.622.489-.213.154.166.262-.338,4.527-1.828.734.394.489.032.3-.281h.323l.861-.355.431.406-.511.622,1.581.514.2-.318.489.193.688.039Z" transform="translate(-1107.371 -303.905)"/>
      <path id="Tracé_346" data-name="Tracé 346" class="cls-2" d="M1150.639,327.87l7.008,3.169,1.082.411.4,1.1.348.355-.164.421.472,1.162-2.875,3.343-4.527,1.828-.262.338-.154-.166-.489.213-.568-.274-.489-.8-.049-.475-.514-.448.4-.521-.423-.94-.362-.213,1.1-2.609-1.052-.489-.426-1.006-.406-.169.2-.509-.6-.245.582-1.39.876.4.448-1.138-.113-.047Z" transform="translate(-1101.344 -273.798)"/>
      <path id="Tracé_347" data-name="Tracé 347" class="cls-4" d="M1251.269,257.524l-.335.418-.462.027-.184.438.489.68-.67,1.27-.927.45-.2,1.581.105.169-1.006.3v.264l-1,.176-1.108-.409.2-.6.169-1.808-1.285-.734-.578-1.549-1.329-.169.137-.719.67-.113-.391-.543.108-.281,1.642-2.327h.3l.734-.957.949,1.091.7.066.161-.159.4.181,2.061-.36.3.394-.289.387.1.771.225.166-.147.3.367.36-.049.347.245.57Z" transform="translate(-1172.992 -217.317)"/>
      <path id="Tracé_348" data-name="Tracé 348" class="cls-4" d="M1261.25,223.5l.078.817.409,2.447,3.291,4.845,2.3,1.926-.692-.061.514.5-.869.629-.2-.245-.607-.012-1.224.935-3.032-.607.115-.328-.245-.57.049-.347-.367-.36.147-.3-.225-.166-.1-.771.289-.387-.3-.394-2.06.36-.4-.181-.161.159-.7-.066-.949-1.091.521-4.272.756-1.072.979-2.038.524.169.406.328,1.028-.414.181.325h.428Z" transform="translate(-1182.931 -194.477)"/>
      <path id="Tracé_349" data-name="Tracé 349" class="cls-2" d="M1202.581,373.376l-.245-1.794-.712-.445-.791.548-1.6-1.755-.392-.345.186-.489-.181-.844-.3-.3-.786.164-.308-.661-.338-.132-.382-.438,1.588-1.994,1.747-1.586,1.578,1.591.656-.462.854-.842.45-.692.583-1.2.954-1.49.343-.35.184.186.443-.2.413-1.454.343-.516-.127-.355.12-.514.636-.577-.206-.558.076-.47-2.048-.34-1.319.8-1,1.042-.663.433.056.188-1.365,1.224-.326-.428-.387-.174-.6.091-.211-.81.318-.35-1.023-1.762.117-.538.805-1.135.453.267.521-.215.661-.042.771-.186.585-.683.49.105.993-.927-.12-.573.32-.13.519.345.2.418.847.245.091.259.015,1.936.348.333.489.157.734.024,1.671-.343,1.635-.746.245-.284.3-.8.533-.688.688.02-.392-.489-.7-.245-.372-1.2-.634-.144.807-1.639.568.827.959.091.245.347.164-.291,1.282.208.11.651-1.224-.269.044.188,1.106.2-.489,1.118-.26-.245-.078.423-.565.059-.245.306.086.406.426-.262.636-.027.372.362-.061.56.225.321-.355.184.384.1-.333.213.171.281-.849,1.75-.389.2h.49l.8-1.409.624-.12.176.734.274-.489.406.232-.245.465.191.147.379-.489.051.514.2-.372,1.121.582v.21h-.419l.58.365-1.914.042-.225.294,1.512.047.225-.1,1.375-.024.526.462.206.558-.57.347.015-.648-.827-.081-.421.313-.012.321.595.617-.793-.279-.489.191-.568.477-1.424-.015-.348.414.078.455,1.659,1.26-.027.58-.568.47-.805-.671-.245.22.279.191-.284,1.25h-.245l-.1-.553-.47.051-.044.289.45.639.144-.245.612.213.025.44-.4.245.245.771.286.225.335-.066.245.362-.081.817-.387.455-.034.734-.4.418-.634-.306-.6.208-.171.475.2.44-.979.778-.245-.524-.414-.176-.068.1-.979.034-.886.343-.68-.171h-.108l-.076.049-.044.137.051.132-.039.213-.489-.083-.426.7-.419.357-.262.206h-.11l-.078-.12-.049-.049-.064-.025-.413-.064-.348.071-.489.575-.1.286-.519.607-1.157.269-.1.47-.455.12-.693.436Zm18.857-25.449H1222l.421.991H1222l-.671.426.022.6-.284.108-.979-.489-.436-.02-.284.558-.785.511.624-.017-.1.734.245.245.524-1.312.859.318-.756.3-.531,1.894,1.224.069.245.318h.717l.631.147.22.734-.634.663-.6-.245-.952-.061-.132,1.468-.372.064-1.111-.979-1.407-.94.2-.8-.191-.45-.1.335-.624.081-.426-.308-.281.257-.506-.734-.223-.781.264-.127.166-.563-.2-.489.169-.105-.076-.489.213-.3.871-.1.658.279.92-.631.154.017.626-1.008-.022-.465.362-.149.764.321.558-.489.617.073Zm-17.129,28.447-1.5-1.387-.245-1.578.36.223.817-.245.622-.379.1-.529,1.157-.245.57-.666.316-.489.453.587.024,1.275-2.139,1.517.49.683-.372.57Zm21.913-17.753.323.12-.688.629-.766,1.813.034.387-.489.157-.656.465-.325-.108.418-.308.306-.489.34-1.148.367-.529.489-.3.416-.653Zm-6.658,4.4-.127.049-.325-.81-.389.13-.284-.58.2-.374.509-.2.634-.876.57-.191.546.166-.127.436-.313-.117-.279.188-.382.913-.436.538Zm5.063-8.665.2-.206.614.279.4-.064.68.786.11,1.241-.389.017-.35-.683-.839-.688Zm-2.2,4.684.489.213-.264.277.184.436-.3.695-.272.017-.115-.923-.347-.245.225-.453Zm7.674-.027.294.357-.406.218-.137-.348-.595-.313-.017-.619.279-.122Zm-.658,1.177.533.081v.612l-.367.049Zm4.559-2.266-.245.815-.874.286.472-.345.4-.683Zm-5.849,1.26.813.191-.715.4-.279-.365Zm-1.429,2.484.365.188-.695.421-.377-.281Zm7.069-5.2.127.582-.245.228-.218-.245Zm2.435.049-.034.335-.531-.117Zm-24.419-8-.047-.281.306-.414.2.069Zm23.144,8.613.049.164-.678.056Z" transform="translate(-1137.938 -288.481)"/>
      <path id="Tracé_41" data-name="Tracé 41" class="cls-2" d="M1261.853,421.961l-.4-.108-.377.414-2.648.612-1.079.612-2.792.137-1.5,2.151v1.529l-.578-.032-.448.169-.922-.108-1.713.369-.817-.13-.284.11-1.3-1.659,5.048-2.621-1.013-2.271,3.624-2.738.1-.164L1253.47,417l-.137-1.772.514-.56-.108-.274.211-.489.213.054.6-.94-.325-.012-.245-.937-.536-1,.533-.108,1.75.355-.1.56.169.149.338-.245.524-.717-.127-.406.651-.328.127-.049.073.543.6-.225.763.02.323-.166.553-.585.524.245-.279.477-.651.022-.489.365-.2-.1-.614.22.245.34.4-.489-.1.526-.668.186.122.362-.3.578-.734.367-.489-.157-.448.078-.316.34.516.462.577,1.035,2.609,1.312-.044.467-.244.57-.7-.245-.245.377.245.208.524-.4.161.086.509-.228.421.325.362.02.622-.277.416.3.612-.012.854-.614,1.116-.489.411-.453-.091-.529-.269-.423.279-.152.274.666.345.46-.274,1.688.1.595-1.172-.262-.259.291-.436.1.587.68.367-.115.166.289-.416.489-.271.653-.979-.387.274-.3-.022-.416-.6-.357-.357.051-.465-.335h-.428l-.108.4-.362.355-.807-.183.428.306.822.1.543-.083.352.208.225.585.59.313.394-.137-.333.614-.318.032-.205.348.418-.042-.318.825Z" transform="translate(-1175.9 -335.733)"/>
      <path id="Tracé_71" data-name="Tracé 71" class="cls-3" d="M1325.387,305.381l.394-.291.33.115-.183.629-.245,1.767.059.524.245.347.773-.139v.186l-.516.489.115.438.4.467.6-.223.607.144.465.276.533.022.269.215.193.526-.049.551h.766l-.438.619-.3-.149-.281.2.017-.335-.634-.475-.3.037-.3-.575-.832.3-.345.3.162.475-.453-.152-.489.117-.086.245-.191-1.613.286-.225.051-.514-.118-.6-.475-.962-.071-.4.228-1.992Z" transform="translate(-1235.07 -256.593)"/>
      <path id="Tracé_80" data-name="Tracé 80" class="cls-2" d="M1193.932,336.831l-.519.859-.259.218.169.734-.1.521-.313.125.521,1.016.245.952-.658-.225-1.187-.206-1.309-.445-1.224-.091-.619-.918-.472-1.162.164-.421-.347-.355-.4-1.1-1.082-.411,1.082-1.5,1.052.245v-.333l1.52.746.627.152,1.674.749.714.551Z" transform="translate(-1130.234 -278.678)"/>
      <path id="Tracé_100" data-name="Tracé 100" class="cls-2" d="M1256.581,317.251l-2.787.225-1.255,1.2-1.532.179-.13-.962.046,1.272h-.35l-.7-.35-.521-.475-.448-1.5.179-.411.3-2.692.443.13-.1.876,7.148-1.013.685,1.111Z" transform="translate(-1177.342 -263.119)"/>
      <path id="Tracé_101" data-name="Tracé 101" class="cls-4" d="M1237.854,278.1l-.13,2.126-.365,3.047-.443-.13-2.408-.734-1.821-.785,1.238-3.514-.316.015-.592-3.582-.619-.7.245-.267,2.381-.335,1.329.169.578,1.549,1.285.734-.169,1.808Z" transform="translate(-1164.872 -232.536)"/>
      <path id="Tracé_137" data-name="Tracé 137" class="cls-2" d="M1280.658,311.976l-.225.379-.3-.431-.563.489.421.734.979-.02-.171-.436.979.37.1.631.112-.477.46.086.756-.651.541.817.541.029.778-.827.409-.719.13-.656.888-.078.639.313.047.719-.587.1-1.016.465-.374.326-.592.832-.228.607-.754,1.028-.4,1.321.017.438.225.489.489.232.086,1.111.323.431.029.323-.291.164-.372.4-.284-.817h-.788l-.279-.519-.617-.073-.558.489-.763-.321.555-.893-.756-.4h-.563l-.34-.029v-.294l-.688-.12-.352-.763-.519-.663.619-1.713.979-2.418-.685-1.111.886-.93.857,1.368.306.206-.355.245Z" transform="translate(-1199.148 -260.256)"/>
      <path id="Tracé_156" data-name="Tracé 156" class="cls-1" d="M1335.969,415.933l-.181.049-.4-.267-1.485-.042-.1.343.21.489-.778.228-.132.218-1.187-.3-.695.228-.394-.3-.093-.389.4-.245-.076-.228h.734l.074.272.328-.428-.02-.3-.489-.529-.475.152.218.12-.49.2-.4-.3.245-.159.269-.749-.186-.147-1.062.2-.842-.144-.421.142-.594-.144.343-.171h.962l.22-.423-.5-.5.054-.543-.274-.448-.12-.548-.431-.443.289-1.593-.668-.543-1.04.308-.147.228-.619.286-.181.279-.6.149-.521-.653-.33-.113-.475.272-.113-.323.35-.291.756.1.511-.357.365-.051,1.368.345.58-.663,1.113-.086-.051.6.308,1.008,1.419,2.763.785,1.27.543.639.979.92.4-.042.631.191.683-.174.568.3.382-.206Zm-13.9-4.454-.245.157-.139.683-.2-.546-.276-.044-.646.489-.245-.661.259-.245.683.1.7-.509.267-.587-.11-.536.372-.384h.619l.137.614-.474.436-.489.245Zm4.777,1.5.44.4-.81-.049-.244-.259Zm.489-3.2-.152.193-.245-.416Z" transform="translate(-1231.271 -334.404)"/>
      <path id="Tracé_162" data-name="Tracé 162" class="cls-2" d="M1261.816,329.86l-.928,2.1-.954.92-.467-.135-.086.377.3.245-.631.83-.6.059-1.392-.2.462-.627-.2-.068-.4.2-.188-.13.245-.306-.323-.215.02-.624.174-.276.142-.793-.042-.186-.1-.362.162-.3-.154-.617,1.532-.179,1.255-1.2,2.787-.225Z" transform="translate(-1183.196 -274.01)"/>
      <path id="Tracé_170" data-name="Tracé 170" class="cls-2" d="M1259.408,297.151l-7.148,1.013.1-.876.365-3.047.13-2.126,1.109.409,1-.176v-.262l1-.3Z" transform="translate(-1179.873 -246.547)"/>
      <path id="Tracé_191" data-name="Tracé 191" class="cls-3" d="M1118.863,299.676l.455,3.3.355,1.821-.137.94-.57,1.319.113.047-.448,1.138-.876-.4-.582,1.39.6.245-.2.509-.051.13-1.27-.563-2.077.443-.286.653-.164-.078-.218.489-.313.223-.472-.088-1.635-.595.245-.57-4.221-2.3.306-.568-.054-.763.421-.105.524.22.294-.384.245-.837L1111,303.43l2.721-2.936.546.325.568.064.205-1.468.115-.13,1.63-.438-.049-.277.842.864.137.262.489-.181Z" transform="translate(-1070.241 -251.668)"/>
      <path id="Tracé_267" data-name="Tracé 267" class="cls-2" d="M1204.806,387.2l-1.786-1.8,2.75-2.772,1.366-1.224-.056-.188.663-.433,1-1.042,1.319-.8,2.048.34-.076.47.206.558-.636.578-.12.514.127.355-.343.516-.413,1.454-.443.2-.184-.186-.343.35-.954,1.49-.582,1.2-.45.693-.854.842-.656.462Z" transform="translate(-1142.682 -312.372)"/>
      <path id="Tracé_296" data-name="Tracé 296" class="cls-2" d="M1294.81,356.863l-.2.206-.8-.675.071-.7.3.044.066.311.245-.693-.33-.139.208-.788-.171-.176-.766.13-.893.467-.538.059-.822-.465-.085-.316.154-.546.362-.2.044-.634-.193-.526.585-.343.455-.1.355-.707.291-.164.585.382.225-.23.734.181.205.289-.489.257-.181.367.015,1.023.57.8-.02.306.607,1.123-.269-.215-.541.712Zm-4.2-1.29-1.224-.069.531-1.894.756-.3.269.132-.394,1.192.32.533Zm2.892-.245-.178.362-.269-.047-.245-.377.384-.144Z" transform="translate(-1207.917 -291.193)"/>
      <path id="Tracé_321" data-name="Tracé 321" class="cls-4" d="M1206.412,296.694l-.245.822-.35.783.269.734-.649.154-.245.575-2.609-.051-4.057-.078.551-.675-.734-.759-.245-.069-.489-.83,3.338-1.779.844.565.489-1.167,3.568-1.664,1.468-.071.316-.015Z" transform="translate(-1138.595 -247.59)"/>
      <path id="Tracé_330" data-name="Tracé 330" class="cls-2" d="M1223.572,347.474l.7.245.391.489-.687-.02-.533.688-.3.8-.244.284-1.635.746-1.671.343-.734-.024-.489-.157-.348-.333-.015-1.936-.091-.259-.847-.245-.2-.418-.519-.345-.32.13.12.573-.994.927-.489-.105.384-.849.078-.609-.489-.088.037-.206-.847.113-.489-.083-.245-.952-.521-1.016.313-.125.1-.521-.169-.734.259-.218.519-.859,1.084.585.489-.458.428-.157.208-.563.418.462,1.06,1.605.245-.245.489.712-.142.269L1218.7,346l1.072,1.28,1.674.066.462.152.852-.186Z" transform="translate(-1149.902 -284.561)"/>
      <path id="Tracé_350" data-name="Tracé 350" class="cls-2" d="M1238.746,430.922l.137,1.772,1.287,1.236-.1.164-3.624,2.738,1.013,2.271-5.046,2.621,1.316,1.659-.521.02-.23.335H1232l-.822.245-1.41-1.958-2.08-2.728.663-.683.372-.57-.489-.683,2.139-1.517-.025-1.275-.453-.587.186-.311.374-.11.14.1.245-.032h.068l.117.161.1.029.064-.017.636-.541.453-.722.416.113.09-.047.03-.225-.044-.159.049-.1.1-.039.712.184h.115l.387-.142.286-.152,1.507-.047.2.533.318.017.915-.751-.245-.556.289-.421.438-.1.49.294Z" transform="translate(-1161.315 -351.428)"/>
      <path id="Tracé_28" data-name="Tracé 28" class="cls-2" d="M1271.978,336.987l.538.073.506.333-.92.382-.267.693.184.171-.318.8-.411.472-.749.286-.947-.338-.529-.022-.262.286-.609-.445-.384.081-.21-.418.418-.306-.078-.409-.3-.245.086-.377.468.135.954-.92.927-2.1.519.663.352.763.688.12v.294Z" transform="translate(-1191.459 -279.267)"/>
    </g>
  </g>
</svg>
