<svg id="Layer_1" data-name="Layer 1" xmlns="http://www.w3.org/2000/svg" viewBox="0 0 50 50"><defs><style>.cls-1{fill:#bfcad0;}</style></defs><title>Artboard 1</title><path class="cls-1" d="M38.18,15.67a5.58,5.58,0,0,0,6.48-7.35l-4.14,4.14a4.13,4.13,0,0,1-2.05-.77l-.54-.54a4,4,0,0,1-.76-2L41.31,5A5.58,5.58,0,0,0,34,11.45a1.59,1.59,0,0,1-.43,1.48L13.29,33.17a1.59,1.59,0,0,1-1.48.43,5.59,5.59,0,0,0-6.48,7.35l4.15-4.14a3.47,3.47,0,0,1,3.35,3.35L8.69,44.3A5.58,5.58,0,0,0,16,37.82a1.6,1.6,0,0,1,.43-1.48L36.7,16.11A1.62,1.62,0,0,1,38.18,15.67ZM15.31,36.62c-.06-.08-.14-.2-.26-.34l-.17-.22-.2-.23c-.14-.17-.31-.33-.47-.5l-.49-.46c-.09-.07-.16-.15-.24-.2l-.22-.19-.34-.26-.12-.1.15.06a2,2,0,0,1,.4.17l.26.13c.09,0,.18.12.27.18a1.35,1.35,0,0,1,.27.22l.27.23.25.27c.08.08.14.19.21.28a3.23,3.23,0,0,1,.31.53,3,3,0,0,1,.17.4l0,.15ZM36,14.53a3.35,3.35,0,0,1-.28-.21l-.27-.25-.24-.27a2.19,2.19,0,0,1-.22-.28l-.18-.27L34.71,13a2,2,0,0,1-.17-.4c0-.09-.06-.15-.06-.15l.1.12c.07.08.16.22.26.34l.19.22c.06.08.13.14.2.24s.3.33.46.5.32.32.49.45l.23.21.22.17.34.26.12.11-.15,0c-.09,0-.24-.08-.4-.17A3.06,3.06,0,0,1,36,14.53ZM38.18,33.6a1.6,1.6,0,0,1-1.48-.43L29,25.44,25.8,28.61l7.73,7.73A1.6,1.6,0,0,1,34,37.82a5.58,5.58,0,0,0,7.35,6.48l-4.15-4.14a3.49,3.49,0,0,1,3.36-3.35l4.14,4.14a5.58,5.58,0,0,0-6.48-7.35Zm-1.11.63-.34.26-.22.19-.24.2-.5.46c-.15.17-.31.33-.45.5a2.28,2.28,0,0,0-.2.23l-.18.22c-.12.14-.2.26-.26.34l-.11.12s0-.05.05-.15a3.68,3.68,0,0,1,.17-.4,3.45,3.45,0,0,1,.32-.53,1.71,1.71,0,0,1,.2-.28l.24-.27.28-.23a1.25,1.25,0,0,1,.27-.22,3.24,3.24,0,0,1,.27-.18l.26-.13a2.26,2.26,0,0,1,.4-.17l.16-.06ZM11.81,15.67a1.6,1.6,0,0,1,1.48.43L21,23.83l3.17-3.17-7.73-7.73A1.58,1.58,0,0,1,16,11.45,5.58,5.58,0,0,0,8.69,5l4.14,4.15a3.93,3.93,0,0,1-.75,2l-.54.54a4.19,4.19,0,0,1-2.06.77L5.33,8.33a5.58,5.58,0,0,0,6.48,7.35Zm1.2-.72.34-.26.22-.17c.08-.06.15-.14.24-.21s.33-.3.49-.45l.46-.5c.07-.09.14-.16.21-.24a1.88,1.88,0,0,1,.18-.22,4.16,4.16,0,0,0,.26-.34l.11-.12a1.32,1.32,0,0,1-.06.15,2.22,2.22,0,0,1-.16.4c0,.08-.09.17-.14.26s-.12.18-.18.27a1.76,1.76,0,0,1-.21.28l-.24.27-.27.25c-.08.08-.19.14-.28.21a2.72,2.72,0,0,1-.53.31c-.16.09-.31.12-.4.17l-.15,0Z"/></svg>
